G04 #@! TF.GenerationSoftware,KiCad,Pcbnew,(5.1.10)-1*
G04 #@! TF.CreationDate,2024-02-11T23:09:16+03:00*
G04 #@! TF.ProjectId,4m_cy62167e_x2,346d5f63-7936-4323-9136-37655f78322e,1*
G04 #@! TF.SameCoordinates,Original*
G04 #@! TF.FileFunction,Copper,L1,Top*
G04 #@! TF.FilePolarity,Positive*
%FSLAX46Y46*%
G04 Gerber Fmt 4.6, Leading zero omitted, Abs format (unit mm)*
G04 Created by KiCad (PCBNEW (5.1.10)-1) date 2024-02-11 23:09:16*
%MOMM*%
%LPD*%
G01*
G04 APERTURE LIST*
G04 #@! TA.AperFunction,ComponentPad*
%ADD10O,1.600000X1.600000*%
G04 #@! TD*
G04 #@! TA.AperFunction,ComponentPad*
%ADD11R,1.600000X1.600000*%
G04 #@! TD*
G04 #@! TA.AperFunction,SMDPad,CuDef*
%ADD12R,1.100000X0.250000*%
G04 #@! TD*
G04 #@! TA.AperFunction,WasherPad*
%ADD13C,8.000000*%
G04 #@! TD*
G04 #@! TA.AperFunction,SMDPad,CuDef*
%ADD14R,1.524000X6.000000*%
G04 #@! TD*
G04 #@! TA.AperFunction,SMDPad,CuDef*
%ADD15R,2.540000X3.510000*%
G04 #@! TD*
G04 #@! TA.AperFunction,ViaPad*
%ADD16C,0.600000*%
G04 #@! TD*
G04 #@! TA.AperFunction,Conductor*
%ADD17C,0.250000*%
G04 #@! TD*
G04 APERTURE END LIST*
G04 #@! TA.AperFunction,SMDPad,CuDef*
G36*
G01*
X95900000Y-144745000D02*
X95900000Y-144445000D01*
G75*
G02*
X96050000Y-144295000I150000J0D01*
G01*
X97300000Y-144295000D01*
G75*
G02*
X97450000Y-144445000I0J-150000D01*
G01*
X97450000Y-144745000D01*
G75*
G02*
X97300000Y-144895000I-150000J0D01*
G01*
X96050000Y-144895000D01*
G75*
G02*
X95900000Y-144745000I0J150000D01*
G01*
G37*
G04 #@! TD.AperFunction*
G04 #@! TA.AperFunction,SMDPad,CuDef*
G36*
G01*
X95900000Y-146015000D02*
X95900000Y-145715000D01*
G75*
G02*
X96050000Y-145565000I150000J0D01*
G01*
X97300000Y-145565000D01*
G75*
G02*
X97450000Y-145715000I0J-150000D01*
G01*
X97450000Y-146015000D01*
G75*
G02*
X97300000Y-146165000I-150000J0D01*
G01*
X96050000Y-146165000D01*
G75*
G02*
X95900000Y-146015000I0J150000D01*
G01*
G37*
G04 #@! TD.AperFunction*
G04 #@! TA.AperFunction,SMDPad,CuDef*
G36*
G01*
X95900000Y-147285000D02*
X95900000Y-146985000D01*
G75*
G02*
X96050000Y-146835000I150000J0D01*
G01*
X97300000Y-146835000D01*
G75*
G02*
X97450000Y-146985000I0J-150000D01*
G01*
X97450000Y-147285000D01*
G75*
G02*
X97300000Y-147435000I-150000J0D01*
G01*
X96050000Y-147435000D01*
G75*
G02*
X95900000Y-147285000I0J150000D01*
G01*
G37*
G04 #@! TD.AperFunction*
G04 #@! TA.AperFunction,SMDPad,CuDef*
G36*
G01*
X95900000Y-148555000D02*
X95900000Y-148255000D01*
G75*
G02*
X96050000Y-148105000I150000J0D01*
G01*
X97300000Y-148105000D01*
G75*
G02*
X97450000Y-148255000I0J-150000D01*
G01*
X97450000Y-148555000D01*
G75*
G02*
X97300000Y-148705000I-150000J0D01*
G01*
X96050000Y-148705000D01*
G75*
G02*
X95900000Y-148555000I0J150000D01*
G01*
G37*
G04 #@! TD.AperFunction*
G04 #@! TA.AperFunction,SMDPad,CuDef*
G36*
G01*
X90550000Y-148555000D02*
X90550000Y-148255000D01*
G75*
G02*
X90700000Y-148105000I150000J0D01*
G01*
X91950000Y-148105000D01*
G75*
G02*
X92100000Y-148255000I0J-150000D01*
G01*
X92100000Y-148555000D01*
G75*
G02*
X91950000Y-148705000I-150000J0D01*
G01*
X90700000Y-148705000D01*
G75*
G02*
X90550000Y-148555000I0J150000D01*
G01*
G37*
G04 #@! TD.AperFunction*
G04 #@! TA.AperFunction,SMDPad,CuDef*
G36*
G01*
X90550000Y-147285000D02*
X90550000Y-146985000D01*
G75*
G02*
X90700000Y-146835000I150000J0D01*
G01*
X91950000Y-146835000D01*
G75*
G02*
X92100000Y-146985000I0J-150000D01*
G01*
X92100000Y-147285000D01*
G75*
G02*
X91950000Y-147435000I-150000J0D01*
G01*
X90700000Y-147435000D01*
G75*
G02*
X90550000Y-147285000I0J150000D01*
G01*
G37*
G04 #@! TD.AperFunction*
G04 #@! TA.AperFunction,SMDPad,CuDef*
G36*
G01*
X90550000Y-146015000D02*
X90550000Y-145715000D01*
G75*
G02*
X90700000Y-145565000I150000J0D01*
G01*
X91950000Y-145565000D01*
G75*
G02*
X92100000Y-145715000I0J-150000D01*
G01*
X92100000Y-146015000D01*
G75*
G02*
X91950000Y-146165000I-150000J0D01*
G01*
X90700000Y-146165000D01*
G75*
G02*
X90550000Y-146015000I0J150000D01*
G01*
G37*
G04 #@! TD.AperFunction*
G04 #@! TA.AperFunction,SMDPad,CuDef*
G36*
G01*
X90550000Y-144745000D02*
X90550000Y-144445000D01*
G75*
G02*
X90700000Y-144295000I150000J0D01*
G01*
X91950000Y-144295000D01*
G75*
G02*
X92100000Y-144445000I0J-150000D01*
G01*
X92100000Y-144745000D01*
G75*
G02*
X91950000Y-144895000I-150000J0D01*
G01*
X90700000Y-144895000D01*
G75*
G02*
X90550000Y-144745000I0J150000D01*
G01*
G37*
G04 #@! TD.AperFunction*
G04 #@! TA.AperFunction,SMDPad,CuDef*
G36*
G01*
X118400000Y-144745000D02*
X118400000Y-144445000D01*
G75*
G02*
X118550000Y-144295000I150000J0D01*
G01*
X119800000Y-144295000D01*
G75*
G02*
X119950000Y-144445000I0J-150000D01*
G01*
X119950000Y-144745000D01*
G75*
G02*
X119800000Y-144895000I-150000J0D01*
G01*
X118550000Y-144895000D01*
G75*
G02*
X118400000Y-144745000I0J150000D01*
G01*
G37*
G04 #@! TD.AperFunction*
G04 #@! TA.AperFunction,SMDPad,CuDef*
G36*
G01*
X118400000Y-146015000D02*
X118400000Y-145715000D01*
G75*
G02*
X118550000Y-145565000I150000J0D01*
G01*
X119800000Y-145565000D01*
G75*
G02*
X119950000Y-145715000I0J-150000D01*
G01*
X119950000Y-146015000D01*
G75*
G02*
X119800000Y-146165000I-150000J0D01*
G01*
X118550000Y-146165000D01*
G75*
G02*
X118400000Y-146015000I0J150000D01*
G01*
G37*
G04 #@! TD.AperFunction*
G04 #@! TA.AperFunction,SMDPad,CuDef*
G36*
G01*
X118400000Y-147285000D02*
X118400000Y-146985000D01*
G75*
G02*
X118550000Y-146835000I150000J0D01*
G01*
X119800000Y-146835000D01*
G75*
G02*
X119950000Y-146985000I0J-150000D01*
G01*
X119950000Y-147285000D01*
G75*
G02*
X119800000Y-147435000I-150000J0D01*
G01*
X118550000Y-147435000D01*
G75*
G02*
X118400000Y-147285000I0J150000D01*
G01*
G37*
G04 #@! TD.AperFunction*
G04 #@! TA.AperFunction,SMDPad,CuDef*
G36*
G01*
X118400000Y-148555000D02*
X118400000Y-148255000D01*
G75*
G02*
X118550000Y-148105000I150000J0D01*
G01*
X119800000Y-148105000D01*
G75*
G02*
X119950000Y-148255000I0J-150000D01*
G01*
X119950000Y-148555000D01*
G75*
G02*
X119800000Y-148705000I-150000J0D01*
G01*
X118550000Y-148705000D01*
G75*
G02*
X118400000Y-148555000I0J150000D01*
G01*
G37*
G04 #@! TD.AperFunction*
G04 #@! TA.AperFunction,SMDPad,CuDef*
G36*
G01*
X113050000Y-148555000D02*
X113050000Y-148255000D01*
G75*
G02*
X113200000Y-148105000I150000J0D01*
G01*
X114450000Y-148105000D01*
G75*
G02*
X114600000Y-148255000I0J-150000D01*
G01*
X114600000Y-148555000D01*
G75*
G02*
X114450000Y-148705000I-150000J0D01*
G01*
X113200000Y-148705000D01*
G75*
G02*
X113050000Y-148555000I0J150000D01*
G01*
G37*
G04 #@! TD.AperFunction*
G04 #@! TA.AperFunction,SMDPad,CuDef*
G36*
G01*
X113050000Y-147285000D02*
X113050000Y-146985000D01*
G75*
G02*
X113200000Y-146835000I150000J0D01*
G01*
X114450000Y-146835000D01*
G75*
G02*
X114600000Y-146985000I0J-150000D01*
G01*
X114600000Y-147285000D01*
G75*
G02*
X114450000Y-147435000I-150000J0D01*
G01*
X113200000Y-147435000D01*
G75*
G02*
X113050000Y-147285000I0J150000D01*
G01*
G37*
G04 #@! TD.AperFunction*
G04 #@! TA.AperFunction,SMDPad,CuDef*
G36*
G01*
X113050000Y-146015000D02*
X113050000Y-145715000D01*
G75*
G02*
X113200000Y-145565000I150000J0D01*
G01*
X114450000Y-145565000D01*
G75*
G02*
X114600000Y-145715000I0J-150000D01*
G01*
X114600000Y-146015000D01*
G75*
G02*
X114450000Y-146165000I-150000J0D01*
G01*
X113200000Y-146165000D01*
G75*
G02*
X113050000Y-146015000I0J150000D01*
G01*
G37*
G04 #@! TD.AperFunction*
G04 #@! TA.AperFunction,SMDPad,CuDef*
G36*
G01*
X113050000Y-144745000D02*
X113050000Y-144445000D01*
G75*
G02*
X113200000Y-144295000I150000J0D01*
G01*
X114450000Y-144295000D01*
G75*
G02*
X114600000Y-144445000I0J-150000D01*
G01*
X114600000Y-144745000D01*
G75*
G02*
X114450000Y-144895000I-150000J0D01*
G01*
X113200000Y-144895000D01*
G75*
G02*
X113050000Y-144745000I0J150000D01*
G01*
G37*
G04 #@! TD.AperFunction*
G04 #@! TA.AperFunction,SMDPad,CuDef*
G36*
G01*
X129400000Y-155450001D02*
X129400000Y-154549999D01*
G75*
G02*
X129649999Y-154300000I249999J0D01*
G01*
X130175001Y-154300000D01*
G75*
G02*
X130425000Y-154549999I0J-249999D01*
G01*
X130425000Y-155450001D01*
G75*
G02*
X130175001Y-155700000I-249999J0D01*
G01*
X129649999Y-155700000D01*
G75*
G02*
X129400000Y-155450001I0J249999D01*
G01*
G37*
G04 #@! TD.AperFunction*
G04 #@! TA.AperFunction,SMDPad,CuDef*
G36*
G01*
X127575000Y-155450001D02*
X127575000Y-154549999D01*
G75*
G02*
X127824999Y-154300000I249999J0D01*
G01*
X128350001Y-154300000D01*
G75*
G02*
X128600000Y-154549999I0J-249999D01*
G01*
X128600000Y-155450001D01*
G75*
G02*
X128350001Y-155700000I-249999J0D01*
G01*
X127824999Y-155700000D01*
G75*
G02*
X127575000Y-155450001I0J249999D01*
G01*
G37*
G04 #@! TD.AperFunction*
D10*
X101380000Y-147549000D03*
X109000000Y-145009000D03*
X101380000Y-145009000D03*
D11*
X109000000Y-147549000D03*
D12*
X85750000Y-157250000D03*
X85750000Y-157750000D03*
X85750000Y-158250000D03*
X85750000Y-158750000D03*
X85750000Y-159250000D03*
X85750000Y-159750000D03*
X85750000Y-160250000D03*
X85750000Y-160750000D03*
X85750000Y-161250000D03*
X85750000Y-161750000D03*
X85750000Y-162250000D03*
X85750000Y-162750000D03*
X85750000Y-163250000D03*
X85750000Y-163750000D03*
X85750000Y-164250000D03*
X85750000Y-164750000D03*
X85750000Y-165250000D03*
X85750000Y-165750000D03*
X85750000Y-166250000D03*
X85750000Y-166750000D03*
X85750000Y-167250000D03*
X85750000Y-167750000D03*
X85750000Y-168250000D03*
X66250000Y-168750000D03*
X66250000Y-168250000D03*
X66250000Y-167750000D03*
X66250000Y-167250000D03*
X66250000Y-166750000D03*
X66250000Y-166250000D03*
X66250000Y-165750000D03*
X66250000Y-165250000D03*
X66250000Y-164750000D03*
X66250000Y-164250000D03*
X66250000Y-163750000D03*
X66250000Y-163250000D03*
X66250000Y-162750000D03*
X66250000Y-162250000D03*
X66250000Y-161750000D03*
X66250000Y-161250000D03*
X66250000Y-160750000D03*
X66250000Y-160250000D03*
X66250000Y-159750000D03*
X66250000Y-159250000D03*
X66250000Y-158750000D03*
X66250000Y-158250000D03*
X66250000Y-157750000D03*
X85750000Y-168750000D03*
X66250000Y-157250000D03*
X144750000Y-157250000D03*
X144750000Y-157750000D03*
X144750000Y-158250000D03*
X144750000Y-158750000D03*
X144750000Y-159250000D03*
X144750000Y-159750000D03*
X144750000Y-160250000D03*
X144750000Y-160750000D03*
X144750000Y-161250000D03*
X144750000Y-161750000D03*
X144750000Y-162250000D03*
X144750000Y-162750000D03*
X144750000Y-163250000D03*
X144750000Y-163750000D03*
X144750000Y-164250000D03*
X144750000Y-164750000D03*
X144750000Y-165250000D03*
X144750000Y-165750000D03*
X144750000Y-166250000D03*
X144750000Y-166750000D03*
X144750000Y-167250000D03*
X144750000Y-167750000D03*
X144750000Y-168250000D03*
X125250000Y-168750000D03*
X125250000Y-168250000D03*
X125250000Y-167750000D03*
X125250000Y-167250000D03*
X125250000Y-166750000D03*
X125250000Y-166250000D03*
X125250000Y-165750000D03*
X125250000Y-165250000D03*
X125250000Y-164750000D03*
X125250000Y-164250000D03*
X125250000Y-163750000D03*
X125250000Y-163250000D03*
X125250000Y-162750000D03*
X125250000Y-162250000D03*
X125250000Y-161750000D03*
X125250000Y-161250000D03*
X125250000Y-160750000D03*
X125250000Y-160250000D03*
X125250000Y-159750000D03*
X125250000Y-159250000D03*
X125250000Y-158750000D03*
X125250000Y-158250000D03*
X125250000Y-157750000D03*
X144750000Y-168750000D03*
X125250000Y-157250000D03*
D13*
X70600000Y-149500000D03*
D14*
X66225000Y-181500000D03*
X68765000Y-181500000D03*
X71305000Y-181500000D03*
X73845000Y-181500000D03*
X76385000Y-181500000D03*
X78925000Y-181500000D03*
X81465000Y-181500000D03*
X84005000Y-181500000D03*
X86545000Y-181500000D03*
X89085000Y-181500000D03*
X91625000Y-181500000D03*
X94165000Y-181500000D03*
X96705000Y-181500000D03*
X99245000Y-181500000D03*
X101785000Y-181500000D03*
X104325000Y-181500000D03*
X106865000Y-181500000D03*
X109405000Y-181500000D03*
X111945000Y-181500000D03*
X114485000Y-181500000D03*
X117025000Y-181500000D03*
X119565000Y-181500000D03*
X122105000Y-181500000D03*
X124645000Y-181500000D03*
X127185000Y-181500000D03*
X129725000Y-181500000D03*
X132265000Y-181500000D03*
X134805000Y-181500000D03*
X137345000Y-181500000D03*
X139885000Y-181500000D03*
X142425000Y-181500000D03*
X144965000Y-181500000D03*
D13*
X140600000Y-149500000D03*
G04 #@! TA.AperFunction,SMDPad,CuDef*
G36*
G01*
X74550000Y-155475000D02*
X74550000Y-154525000D01*
G75*
G02*
X74800000Y-154275000I250000J0D01*
G01*
X75300000Y-154275000D01*
G75*
G02*
X75550000Y-154525000I0J-250000D01*
G01*
X75550000Y-155475000D01*
G75*
G02*
X75300000Y-155725000I-250000J0D01*
G01*
X74800000Y-155725000D01*
G75*
G02*
X74550000Y-155475000I0J250000D01*
G01*
G37*
G04 #@! TD.AperFunction*
G04 #@! TA.AperFunction,SMDPad,CuDef*
G36*
G01*
X76450000Y-155475000D02*
X76450000Y-154525000D01*
G75*
G02*
X76700000Y-154275000I250000J0D01*
G01*
X77200000Y-154275000D01*
G75*
G02*
X77450000Y-154525000I0J-250000D01*
G01*
X77450000Y-155475000D01*
G75*
G02*
X77200000Y-155725000I-250000J0D01*
G01*
X76700000Y-155725000D01*
G75*
G02*
X76450000Y-155475000I0J250000D01*
G01*
G37*
G04 #@! TD.AperFunction*
G04 #@! TA.AperFunction,SMDPad,CuDef*
G36*
G01*
X135450000Y-155475000D02*
X135450000Y-154525000D01*
G75*
G02*
X135700000Y-154275000I250000J0D01*
G01*
X136200000Y-154275000D01*
G75*
G02*
X136450000Y-154525000I0J-250000D01*
G01*
X136450000Y-155475000D01*
G75*
G02*
X136200000Y-155725000I-250000J0D01*
G01*
X135700000Y-155725000D01*
G75*
G02*
X135450000Y-155475000I0J250000D01*
G01*
G37*
G04 #@! TD.AperFunction*
G04 #@! TA.AperFunction,SMDPad,CuDef*
G36*
G01*
X133550000Y-155475000D02*
X133550000Y-154525000D01*
G75*
G02*
X133800000Y-154275000I250000J0D01*
G01*
X134300000Y-154275000D01*
G75*
G02*
X134550000Y-154525000I0J-250000D01*
G01*
X134550000Y-155475000D01*
G75*
G02*
X134300000Y-155725000I-250000J0D01*
G01*
X133800000Y-155725000D01*
G75*
G02*
X133550000Y-155475000I0J250000D01*
G01*
G37*
G04 #@! TD.AperFunction*
D15*
X90820000Y-163251000D03*
X120180000Y-163251000D03*
D16*
X127950300Y-157358700D03*
X107337100Y-171773800D03*
X65099900Y-164033100D03*
X89792800Y-145626300D03*
X130922800Y-161056600D03*
X77466000Y-177760400D03*
X80633000Y-175051200D03*
X122213500Y-164909000D03*
X70631700Y-166282700D03*
X124045000Y-164424600D03*
X70355200Y-165253100D03*
X87371100Y-167373200D03*
X106129000Y-176339200D03*
X106914100Y-177040100D03*
X88774900Y-168048900D03*
X118116500Y-175677200D03*
X94883700Y-162128400D03*
X119600000Y-176127500D03*
X93583900Y-160645400D03*
X119039000Y-175376900D03*
X92847200Y-161413400D03*
X121712200Y-176320300D03*
X90564700Y-165623400D03*
X137139600Y-175426500D03*
X122903500Y-163386500D03*
X137173400Y-176627300D03*
X72751200Y-166085500D03*
X120612900Y-165743600D03*
X70861800Y-167354200D03*
X78112000Y-162459800D03*
X117314200Y-165989600D03*
X71957400Y-168753300D03*
X81688000Y-175033600D03*
X117857500Y-166934400D03*
X72337500Y-169816600D03*
X83432700Y-174528400D03*
X72814000Y-170798700D03*
X87131800Y-177802900D03*
X86489300Y-173611600D03*
X73499600Y-171552400D03*
X92324400Y-177314300D03*
X90204100Y-172422000D03*
X96673900Y-177049800D03*
X74425100Y-172012800D03*
X91425300Y-171165400D03*
X75360000Y-171586400D03*
X100871500Y-176634900D03*
X83749800Y-159637400D03*
X88081500Y-168725600D03*
X108738100Y-177749900D03*
X112245300Y-175004600D03*
X113136800Y-175624600D03*
X86907600Y-166489700D03*
X126106200Y-174332100D03*
X127134300Y-174719700D03*
X87697000Y-165791500D03*
X129602600Y-173836400D03*
X130657700Y-173908000D03*
X87160800Y-164856100D03*
X131676700Y-172473200D03*
X132742800Y-172391300D03*
X86935100Y-163804900D03*
X141472300Y-175599800D03*
X127085900Y-153623100D03*
X143267400Y-163001200D03*
X134837300Y-157033300D03*
X92700700Y-148495800D03*
X68193200Y-163947400D03*
X106392700Y-149600700D03*
D17*
X128087500Y-155000000D02*
X127575900Y-154528200D01*
X127575900Y-154528200D02*
X126753600Y-154528200D01*
X126753600Y-154528200D02*
X120516600Y-148291200D01*
X120516600Y-148291200D02*
X120516600Y-145406200D01*
X120516600Y-145406200D02*
X120119900Y-145009500D01*
X120119900Y-145009500D02*
X120027700Y-145009500D01*
X120027700Y-145009500D02*
X119886000Y-144867800D01*
X119886000Y-144867800D02*
X119175000Y-144595000D01*
X119175000Y-144595000D02*
X118427100Y-144358900D01*
X118427100Y-144358900D02*
X118427000Y-144358900D01*
X118427000Y-144358900D02*
X117001900Y-142933800D01*
X117001900Y-142933800D02*
X101510500Y-142933800D01*
X101510500Y-142933800D02*
X99874300Y-144570000D01*
X99874300Y-144570000D02*
X97450600Y-144570000D01*
X97450600Y-144570000D02*
X97325600Y-144570000D01*
X97325600Y-144570000D02*
X96675000Y-144595000D01*
X128087500Y-155000000D02*
X127950300Y-155576000D01*
X127950300Y-155576000D02*
X127950300Y-155701000D01*
X127950300Y-155701000D02*
X127950300Y-157358700D01*
X109000000Y-147549000D02*
X109675000Y-146874000D01*
X109675000Y-146874000D02*
X109800000Y-146874000D01*
X109800000Y-146874000D02*
X110930300Y-146874000D01*
X110930300Y-146874000D02*
X113046300Y-144758000D01*
X113046300Y-144758000D02*
X113050500Y-144758000D01*
X113050500Y-144758000D02*
X113825000Y-144595000D01*
X85750000Y-158250000D02*
X85200000Y-158250000D01*
X85200000Y-158250000D02*
X84992900Y-158250000D01*
X84992900Y-158250000D02*
X84624900Y-158618000D01*
X84624900Y-158618000D02*
X84624900Y-159999900D01*
X84624900Y-159999900D02*
X83983800Y-160641000D01*
X83983800Y-160641000D02*
X83866600Y-160641000D01*
X66250000Y-164250000D02*
X66250000Y-164125000D01*
X66250000Y-164125000D02*
X66250000Y-163875000D01*
X66250000Y-163875000D02*
X66250000Y-163750000D01*
X135950000Y-155000000D02*
X136441400Y-155539700D01*
X136441400Y-155539700D02*
X136444500Y-155539700D01*
X136444500Y-155539700D02*
X138654800Y-157750000D01*
X138654800Y-157750000D02*
X144200000Y-157750000D01*
X144200000Y-157750000D02*
X144750000Y-157750000D01*
X120180000Y-163251000D02*
X121325000Y-164126800D01*
X121325000Y-164126800D02*
X121450000Y-164126800D01*
X121450000Y-164126800D02*
X122537500Y-164126800D01*
X122537500Y-164126800D02*
X122567800Y-164157100D01*
X122567800Y-164157100D02*
X123248000Y-164157100D01*
X123248000Y-164157100D02*
X123733200Y-163671900D01*
X123733200Y-163671900D02*
X124356800Y-163671900D01*
X124356800Y-163671900D02*
X124434900Y-163750000D01*
X124434900Y-163750000D02*
X124700000Y-163750000D01*
X124700000Y-163750000D02*
X125250000Y-163750000D01*
X144750000Y-157750000D02*
X144750000Y-157875000D01*
X144750000Y-157875000D02*
X144750000Y-158125000D01*
X144750000Y-158125000D02*
X144750000Y-158250000D01*
X144750000Y-158250000D02*
X145300000Y-158250000D01*
X145300000Y-158250000D02*
X145747500Y-158250000D01*
X83866600Y-160641000D02*
X82427300Y-160641000D01*
X82427300Y-160641000D02*
X77404700Y-155618400D01*
X77404700Y-155618400D02*
X76950000Y-155000000D01*
X85750000Y-158250000D02*
X85750000Y-158125000D01*
X85750000Y-158125000D02*
X85750000Y-157875000D01*
X85750000Y-157875000D02*
X85750000Y-157750000D01*
X91325000Y-144595000D02*
X92036000Y-144322100D01*
X92036000Y-144322100D02*
X96224700Y-140133400D01*
X96224700Y-140133400D02*
X123965300Y-140133400D01*
X123965300Y-140133400D02*
X140381800Y-156549900D01*
X140381800Y-156549900D02*
X145538200Y-156549900D01*
X145538200Y-156549900D02*
X145875100Y-156886800D01*
X145875100Y-156886800D02*
X145875100Y-158122400D01*
X145875100Y-158122400D02*
X145747500Y-158250000D01*
X66250000Y-164250000D02*
X65700000Y-164250000D01*
X65700000Y-164250000D02*
X65316800Y-164250000D01*
X65316800Y-164250000D02*
X65099900Y-164033100D01*
X125250000Y-163750000D02*
X125800000Y-163750000D01*
X125800000Y-163750000D02*
X128229400Y-163750000D01*
X128229400Y-163750000D02*
X130922800Y-161056600D01*
X144750000Y-167750000D02*
X145300000Y-167750000D01*
X145300000Y-167750000D02*
X145507100Y-167750000D01*
X145507100Y-167750000D02*
X145875100Y-167382000D01*
X145875100Y-167382000D02*
X145875100Y-158377600D01*
X145875100Y-158377600D02*
X145747500Y-158250000D01*
X76950000Y-155000000D02*
X77376700Y-154348200D01*
X77376700Y-154348200D02*
X77383100Y-154341800D01*
X77383100Y-154341800D02*
X88092300Y-154341800D01*
X88092300Y-154341800D02*
X93575800Y-148858300D01*
X93575800Y-148858300D02*
X93575800Y-148133300D01*
X93575800Y-148133300D02*
X92666600Y-147224100D01*
X92666600Y-147224100D02*
X92666600Y-145406200D01*
X92666600Y-145406200D02*
X92303500Y-145043100D01*
X92303500Y-145043100D02*
X92284900Y-145043100D01*
X92284900Y-145043100D02*
X92072800Y-144831000D01*
X92072800Y-144831000D02*
X91325000Y-144595000D01*
X85750000Y-167750000D02*
X85200000Y-167750000D01*
X85200000Y-167750000D02*
X84992900Y-167750000D01*
X84992900Y-167750000D02*
X83866600Y-166623700D01*
X83866600Y-166623700D02*
X83866600Y-160641000D01*
X107337100Y-171773800D02*
X114229900Y-164881000D01*
X114229900Y-164881000D02*
X118910000Y-164881000D01*
X118910000Y-164881000D02*
X119035000Y-164881000D01*
X119035000Y-164881000D02*
X120180000Y-163251000D01*
X91325000Y-144595000D02*
X90564000Y-144808400D01*
X90564000Y-144808400D02*
X89792800Y-145579600D01*
X89792800Y-145579600D02*
X89792800Y-145626300D01*
X125250000Y-164250000D02*
X125250000Y-164125000D01*
X125250000Y-164125000D02*
X125250000Y-163875000D01*
X125250000Y-163875000D02*
X125250000Y-163750000D01*
X66250000Y-160750000D02*
X66800000Y-160750000D01*
X66800000Y-160750000D02*
X69550200Y-160750000D01*
X69550200Y-160750000D02*
X74260500Y-165460300D01*
X74260500Y-165460300D02*
X74260500Y-166511300D01*
X74260500Y-166511300D02*
X78171200Y-170422000D01*
X78171200Y-170422000D02*
X78171200Y-173827000D01*
X78171200Y-173827000D02*
X81147900Y-176803700D01*
X81147900Y-176803700D02*
X86072800Y-176803700D01*
X86072800Y-176803700D02*
X86529000Y-176347500D01*
X86529000Y-176347500D02*
X87220400Y-176347500D01*
X87220400Y-176347500D02*
X87362100Y-176205800D01*
X87362100Y-176205800D02*
X87858800Y-176205800D01*
X87858800Y-176205800D02*
X88118700Y-175945900D01*
X88118700Y-175945900D02*
X91001300Y-175945900D01*
X91001300Y-175945900D02*
X91536100Y-175411100D01*
X91536100Y-175411100D02*
X94104700Y-175411100D01*
X94104700Y-175411100D02*
X96556400Y-172959400D01*
X96556400Y-172959400D02*
X102330700Y-172959400D01*
X102330700Y-172959400D02*
X115069300Y-160220800D01*
X115069300Y-160220800D02*
X121903100Y-160220800D01*
X121903100Y-160220800D02*
X122432300Y-160750000D01*
X122432300Y-160750000D02*
X124700000Y-160750000D01*
X124700000Y-160750000D02*
X125250000Y-160750000D01*
X73845000Y-181500000D02*
X73208000Y-178625000D01*
X73208000Y-178625000D02*
X73208000Y-178500000D01*
X73208000Y-178500000D02*
X73208000Y-178448200D01*
X73208000Y-178448200D02*
X64224800Y-169465000D01*
X64224800Y-169465000D02*
X64224800Y-162018100D01*
X64224800Y-162018100D02*
X65492900Y-160750000D01*
X65492900Y-160750000D02*
X65700000Y-160750000D01*
X65700000Y-160750000D02*
X66250000Y-160750000D01*
X76385000Y-181500000D02*
X77022000Y-178625000D01*
X77022000Y-178625000D02*
X77022000Y-178500000D01*
X77022000Y-178500000D02*
X77022000Y-178204400D01*
X77022000Y-178204400D02*
X77466000Y-177760400D01*
X80633000Y-175051200D02*
X80633000Y-175216200D01*
X80633000Y-175216200D02*
X81520400Y-176103600D01*
X81520400Y-176103600D02*
X85867300Y-176103600D01*
X85867300Y-176103600D02*
X86263700Y-175707200D01*
X86263700Y-175707200D02*
X87005400Y-175707200D01*
X87005400Y-175707200D02*
X87111600Y-175601000D01*
X87111600Y-175601000D02*
X87534600Y-175601000D01*
X87534600Y-175601000D02*
X87859500Y-175276100D01*
X87859500Y-175276100D02*
X90856300Y-175276100D01*
X90856300Y-175276100D02*
X91297400Y-174835000D01*
X91297400Y-174835000D02*
X93690800Y-174835000D01*
X93690800Y-174835000D02*
X96266500Y-172259300D01*
X96266500Y-172259300D02*
X102040700Y-172259300D01*
X102040700Y-172259300D02*
X114779300Y-159520700D01*
X114779300Y-159520700D02*
X122155500Y-159520700D01*
X122155500Y-159520700D02*
X122884800Y-160250000D01*
X122884800Y-160250000D02*
X124700000Y-160250000D01*
X124700000Y-160250000D02*
X125250000Y-160250000D01*
X66250000Y-160250000D02*
X66800000Y-160250000D01*
X66800000Y-160250000D02*
X69993700Y-160250000D01*
X69993700Y-160250000D02*
X74927700Y-165184000D01*
X74927700Y-165184000D02*
X74927700Y-166246400D01*
X74927700Y-166246400D02*
X78830300Y-170149000D01*
X78830300Y-170149000D02*
X78830300Y-173248500D01*
X78830300Y-173248500D02*
X80633000Y-175051200D01*
X78925000Y-181500000D02*
X78341100Y-178625000D01*
X78341100Y-178625000D02*
X78341100Y-178500000D01*
X78341100Y-178500000D02*
X78341100Y-177397900D01*
X78341100Y-177397900D02*
X76194100Y-175250900D01*
X76194100Y-175250900D02*
X76194100Y-171240900D01*
X76194100Y-171240900D02*
X75705500Y-170752300D01*
X75705500Y-170752300D02*
X75395100Y-170752300D01*
X75395100Y-170752300D02*
X71194300Y-166551500D01*
X71194300Y-166551500D02*
X70900500Y-166551500D01*
X70900500Y-166551500D02*
X70631700Y-166282700D01*
X125250000Y-165250000D02*
X124700000Y-165250000D01*
X124700000Y-165250000D02*
X122554500Y-165250000D01*
X122554500Y-165250000D02*
X122213500Y-164909000D01*
X70631700Y-166282700D02*
X69422200Y-166281400D01*
X69422200Y-166281400D02*
X68388100Y-165247200D01*
X68388100Y-165247200D02*
X66800000Y-165250000D01*
X66800000Y-165250000D02*
X66250000Y-165250000D01*
X81465000Y-181500000D02*
X80828000Y-178625000D01*
X80828000Y-178625000D02*
X80828000Y-178500000D01*
X80828000Y-178500000D02*
X80828000Y-178448200D01*
X80828000Y-178448200D02*
X80754800Y-178375000D01*
X80754800Y-178375000D02*
X80739000Y-178375000D01*
X80739000Y-178375000D02*
X76853100Y-174489100D01*
X76853100Y-174489100D02*
X76853100Y-170967900D01*
X76853100Y-170967900D02*
X75978500Y-170093300D01*
X75978500Y-170093300D02*
X75623800Y-170093300D01*
X75623800Y-170093300D02*
X71506800Y-165976300D01*
X71506800Y-165976300D02*
X71506800Y-165920200D01*
X71506800Y-165920200D02*
X70839700Y-165253100D01*
X70839700Y-165253100D02*
X70355200Y-165253100D01*
X125250000Y-164750000D02*
X124700000Y-164750000D01*
X124700000Y-164750000D02*
X124370400Y-164750000D01*
X124370400Y-164750000D02*
X124045000Y-164424600D01*
X66250000Y-164750000D02*
X66800000Y-164750000D01*
X66800000Y-164750000D02*
X68554000Y-164749300D01*
X68554000Y-164749300D02*
X69064700Y-165253600D01*
X69064700Y-165253600D02*
X70355200Y-165253100D01*
X84005000Y-181500000D02*
X84642000Y-178625000D01*
X84642000Y-178625000D02*
X84767000Y-178625000D01*
X84767000Y-178625000D02*
X84844700Y-178625000D01*
X84844700Y-178625000D02*
X85544800Y-177924900D01*
X85544800Y-177924900D02*
X85856900Y-177924900D01*
X85856900Y-177924900D02*
X86794100Y-176987700D01*
X86794100Y-176987700D02*
X87435500Y-176987700D01*
X87435500Y-176987700D02*
X87612600Y-176810600D01*
X87612600Y-176810600D02*
X88183100Y-176810600D01*
X88183100Y-176810600D02*
X88378000Y-176615700D01*
X88378000Y-176615700D02*
X91146100Y-176615700D01*
X91146100Y-176615700D02*
X91774700Y-175987100D01*
X91774700Y-175987100D02*
X94518800Y-175987100D01*
X94518800Y-175987100D02*
X96846400Y-173659500D01*
X96846400Y-173659500D02*
X102620700Y-173659500D01*
X102620700Y-173659500D02*
X115359300Y-160920900D01*
X115359300Y-160920900D02*
X121650600Y-160920900D01*
X121650600Y-160920900D02*
X121979700Y-161250000D01*
X121979700Y-161250000D02*
X124700000Y-161250000D01*
X124700000Y-161250000D02*
X125250000Y-161250000D01*
X84005000Y-181500000D02*
X83368000Y-178625000D01*
X83368000Y-178625000D02*
X83243000Y-178625000D01*
X83243000Y-178625000D02*
X83165300Y-178625000D01*
X83165300Y-178625000D02*
X82214700Y-177674400D01*
X82214700Y-177674400D02*
X81028500Y-177674400D01*
X81028500Y-177674400D02*
X77512200Y-174158100D01*
X77512200Y-174158100D02*
X77512200Y-170694900D01*
X77512200Y-170694900D02*
X73593400Y-166776100D01*
X73593400Y-166776100D02*
X73593400Y-165736600D01*
X73593400Y-165736600D02*
X69106800Y-161250000D01*
X69106800Y-161250000D02*
X66800000Y-161250000D01*
X66800000Y-161250000D02*
X66250000Y-161250000D01*
X85750000Y-158750000D02*
X86300000Y-158750000D01*
X86300000Y-158750000D02*
X86507100Y-158750000D01*
X86507100Y-158750000D02*
X94976000Y-150281100D01*
X94976000Y-150281100D02*
X94976000Y-147553300D01*
X94976000Y-147553300D02*
X94624200Y-147201500D01*
X94624200Y-147201500D02*
X94624200Y-143855200D01*
X94624200Y-143855200D02*
X96945800Y-141533600D01*
X96945800Y-141533600D02*
X122463900Y-141533600D01*
X122463900Y-141533600D02*
X135000000Y-154069700D01*
X135000000Y-154069700D02*
X135000000Y-155958400D01*
X135000000Y-155958400D02*
X135925200Y-156883600D01*
X135925200Y-156883600D02*
X135925200Y-157401000D01*
X144750000Y-158750000D02*
X144200000Y-158750000D01*
X144200000Y-158750000D02*
X137274200Y-158750000D01*
X137274200Y-158750000D02*
X135925200Y-157401000D01*
X86545000Y-181500000D02*
X87182000Y-178625000D01*
X87182000Y-178625000D02*
X87307000Y-178625000D01*
X87307000Y-178625000D02*
X87493600Y-178625000D01*
X87493600Y-178625000D02*
X88098400Y-178020200D01*
X88098400Y-178020200D02*
X89556300Y-178020200D01*
X89556300Y-178020200D02*
X89621300Y-177955200D01*
X89621300Y-177955200D02*
X91088700Y-177955200D01*
X91088700Y-177955200D02*
X91190700Y-178057200D01*
X91190700Y-178057200D02*
X93086100Y-178057200D01*
X93086100Y-178057200D02*
X93218400Y-177924900D01*
X93218400Y-177924900D02*
X103305700Y-177924900D01*
X103305700Y-177924900D02*
X105766500Y-175464100D01*
X105766500Y-175464100D02*
X110548200Y-175464100D01*
X110548200Y-175464100D02*
X115011000Y-171001300D01*
X115011000Y-171001300D02*
X124487000Y-171001300D01*
X124487000Y-171001300D02*
X135925200Y-159563100D01*
X135925200Y-159563100D02*
X135925200Y-157401000D01*
X87371100Y-167373200D02*
X86630300Y-167373200D01*
X86630300Y-167373200D02*
X86507100Y-167250000D01*
X86507100Y-167250000D02*
X86300000Y-167250000D01*
X86300000Y-167250000D02*
X85750000Y-167250000D01*
X104325000Y-181500000D02*
X104962000Y-178625000D01*
X104962000Y-178625000D02*
X104962000Y-178500000D01*
X104962000Y-178500000D02*
X104962000Y-177506200D01*
X104962000Y-177506200D02*
X106129000Y-176339200D01*
X144750000Y-167250000D02*
X144200000Y-167250000D01*
X144200000Y-167250000D02*
X142098300Y-167250000D01*
X142098300Y-167250000D02*
X133165000Y-176183300D01*
X133165000Y-176183300D02*
X126538000Y-176183300D01*
X126538000Y-176183300D02*
X126328400Y-175973700D01*
X126328400Y-175973700D02*
X125114400Y-175973700D01*
X125114400Y-175973700D02*
X122242300Y-173101600D01*
X122242300Y-173101600D02*
X117474300Y-173101600D01*
X117474300Y-173101600D02*
X114076200Y-176499700D01*
X114076200Y-176499700D02*
X109715600Y-176499700D01*
X109715600Y-176499700D02*
X109380900Y-176165000D01*
X109380900Y-176165000D02*
X106303200Y-176165000D01*
X106303200Y-176165000D02*
X106129000Y-176339200D01*
X106914100Y-177040100D02*
X107079400Y-176874800D01*
X107079400Y-176874800D02*
X109100600Y-176874800D01*
X109100600Y-176874800D02*
X109425600Y-177199800D01*
X109425600Y-177199800D02*
X114366200Y-177199800D01*
X114366200Y-177199800D02*
X117764300Y-173801700D01*
X117764300Y-173801700D02*
X121952300Y-173801700D01*
X121952300Y-173801700D02*
X124765000Y-176614400D01*
X124765000Y-176614400D02*
X126063000Y-176614400D01*
X126063000Y-176614400D02*
X126332000Y-176883400D01*
X126332000Y-176883400D02*
X133455000Y-176883400D01*
X133455000Y-176883400D02*
X142088400Y-168250000D01*
X142088400Y-168250000D02*
X144200000Y-168250000D01*
X144200000Y-168250000D02*
X144750000Y-168250000D01*
X88774900Y-168048900D02*
X88722300Y-167996300D01*
X88722300Y-167996300D02*
X87779400Y-167996300D01*
X87779400Y-167996300D02*
X87525700Y-168250000D01*
X87525700Y-168250000D02*
X86300000Y-168250000D01*
X86300000Y-168250000D02*
X85750000Y-168250000D01*
X106865000Y-181500000D02*
X106914100Y-178625000D01*
X106914100Y-178625000D02*
X106914100Y-178500000D01*
X106914100Y-178500000D02*
X106914100Y-177040100D01*
X94883700Y-162128400D02*
X94883700Y-160707600D01*
X94883700Y-160707600D02*
X93426100Y-159250000D01*
X93426100Y-159250000D02*
X86300000Y-159250000D01*
X86300000Y-159250000D02*
X85750000Y-159250000D01*
X119565000Y-181500000D02*
X118928000Y-178625000D01*
X118928000Y-178625000D02*
X118928000Y-178500000D01*
X118928000Y-178500000D02*
X118928000Y-178448200D01*
X118928000Y-178448200D02*
X118116500Y-177636700D01*
X118116500Y-177636700D02*
X118116500Y-175677200D01*
X93583900Y-160645400D02*
X93159300Y-160220800D01*
X93159300Y-160220800D02*
X89021800Y-160220800D01*
X89021800Y-160220800D02*
X88992600Y-160250000D01*
X88992600Y-160250000D02*
X86300000Y-160250000D01*
X86300000Y-160250000D02*
X85750000Y-160250000D01*
X122105000Y-181500000D02*
X121468000Y-178625000D01*
X121468000Y-178625000D02*
X121468000Y-178500000D01*
X121468000Y-178500000D02*
X121468000Y-178448200D01*
X121468000Y-178448200D02*
X119600000Y-176580200D01*
X119600000Y-176580200D02*
X119600000Y-176127500D01*
X92847200Y-161413400D02*
X92354700Y-160920900D01*
X92354700Y-160920900D02*
X89311800Y-160920900D01*
X89311800Y-160920900D02*
X88982700Y-161250000D01*
X88982700Y-161250000D02*
X86300000Y-161250000D01*
X86300000Y-161250000D02*
X85750000Y-161250000D01*
X124645000Y-181500000D02*
X124008000Y-178625000D01*
X124008000Y-178625000D02*
X123883000Y-178625000D01*
X123883000Y-178625000D02*
X123805300Y-178625000D01*
X123805300Y-178625000D02*
X123105200Y-177924900D01*
X123105200Y-177924900D02*
X122079200Y-177924900D01*
X122079200Y-177924900D02*
X120475100Y-176320800D01*
X120475100Y-176320800D02*
X120475100Y-175765000D01*
X120475100Y-175765000D02*
X119962500Y-175252400D01*
X119962500Y-175252400D02*
X119163500Y-175252400D01*
X119163500Y-175252400D02*
X119039000Y-175376900D01*
X90564700Y-165623400D02*
X89479100Y-165623400D01*
X89479100Y-165623400D02*
X89082500Y-165226800D01*
X89082500Y-165226800D02*
X89082500Y-165217600D01*
X89082500Y-165217600D02*
X88736000Y-164871100D01*
X88736000Y-164871100D02*
X88736000Y-163406800D01*
X88736000Y-163406800D02*
X87579200Y-162250000D01*
X87579200Y-162250000D02*
X86300000Y-162250000D01*
X86300000Y-162250000D02*
X85750000Y-162250000D01*
X127185000Y-181500000D02*
X126548000Y-178625000D01*
X126548000Y-178625000D02*
X126423000Y-178625000D01*
X126423000Y-178625000D02*
X126261300Y-178625000D01*
X126261300Y-178625000D02*
X125575000Y-177938700D01*
X125575000Y-177938700D02*
X124109100Y-177938700D01*
X124109100Y-177938700D02*
X122490700Y-176320300D01*
X122490700Y-176320300D02*
X121712200Y-176320300D01*
X122903500Y-163386500D02*
X124040000Y-162250000D01*
X124040000Y-162250000D02*
X124700000Y-162250000D01*
X124700000Y-162250000D02*
X125250000Y-162250000D01*
X134805000Y-181500000D02*
X135442000Y-178625000D01*
X135442000Y-178625000D02*
X135442000Y-178500000D01*
X135442000Y-178500000D02*
X135442000Y-177121100D01*
X135442000Y-177121100D02*
X137136600Y-175426500D01*
X137136600Y-175426500D02*
X137139600Y-175426500D01*
X72751200Y-166085500D02*
X68915700Y-162250000D01*
X68915700Y-162250000D02*
X66800000Y-162250000D01*
X66800000Y-162250000D02*
X66250000Y-162250000D01*
X137345000Y-181500000D02*
X137173400Y-178625000D01*
X137173400Y-178625000D02*
X137173400Y-178500000D01*
X137173400Y-178500000D02*
X137173400Y-176627300D01*
X125250000Y-165750000D02*
X124700000Y-165750000D01*
X124700000Y-165750000D02*
X123923300Y-165750000D01*
X123923300Y-165750000D02*
X123889200Y-165784100D01*
X123889200Y-165784100D02*
X120653400Y-165784100D01*
X120653400Y-165784100D02*
X120612900Y-165743600D01*
X70861800Y-167354200D02*
X69698600Y-167354200D01*
X69698600Y-167354200D02*
X68094400Y-165750000D01*
X68094400Y-165750000D02*
X66800000Y-165750000D01*
X66800000Y-165750000D02*
X66250000Y-165750000D01*
X125250000Y-159750000D02*
X125800000Y-159750000D01*
X125800000Y-159750000D02*
X126007100Y-159750000D01*
X126007100Y-159750000D02*
X126375100Y-159382000D01*
X126375100Y-159382000D02*
X126366100Y-156790900D01*
X126366100Y-156790900D02*
X124892000Y-155316900D01*
X124892000Y-155316900D02*
X121593100Y-155320100D01*
X121593100Y-155320100D02*
X113039300Y-155320100D01*
X113039300Y-155320100D02*
X100300700Y-168058700D01*
X100300700Y-168058700D02*
X92339700Y-168058700D01*
X92339700Y-168058700D02*
X89397500Y-171000900D01*
X89397500Y-171000900D02*
X84535800Y-171000900D01*
X84535800Y-171000900D02*
X82796100Y-169261200D01*
X82796100Y-169261200D02*
X82796100Y-168522500D01*
X82796100Y-168522500D02*
X78963500Y-164689900D01*
X78963500Y-164689900D02*
X78963500Y-163311300D01*
X78963500Y-163311300D02*
X78112000Y-162459800D01*
X66250000Y-159750000D02*
X65700000Y-159750000D01*
X65700000Y-159750000D02*
X65492900Y-159750000D01*
X65492900Y-159750000D02*
X65124900Y-159382000D01*
X65124900Y-159382000D02*
X65124900Y-156886800D01*
X65124900Y-156886800D02*
X65461800Y-156549900D01*
X65461800Y-156549900D02*
X72202100Y-156549900D01*
X72202100Y-156549900D02*
X78112000Y-162459800D01*
X66250000Y-166250000D02*
X66800000Y-166250000D01*
X66800000Y-166250000D02*
X67835500Y-166250000D01*
X67835500Y-166250000D02*
X70338800Y-168753300D01*
X70338800Y-168753300D02*
X71957400Y-168753300D01*
X125250000Y-166250000D02*
X124700000Y-166250000D01*
X124700000Y-166250000D02*
X123612700Y-166250000D01*
X123612700Y-166250000D02*
X123244000Y-166618700D01*
X123244000Y-166618700D02*
X118779400Y-166618700D01*
X118779400Y-166618700D02*
X118150300Y-165989600D01*
X118150300Y-165989600D02*
X117314200Y-165989600D01*
X125250000Y-159250000D02*
X124700000Y-159250000D01*
X124700000Y-159250000D02*
X122837400Y-159250000D01*
X122837400Y-159250000D02*
X122408000Y-158820600D01*
X122408000Y-158820600D02*
X114489300Y-158820600D01*
X114489300Y-158820600D02*
X101750700Y-171559200D01*
X101750700Y-171559200D02*
X95976500Y-171559200D01*
X95976500Y-171559200D02*
X93276800Y-174258900D01*
X93276800Y-174258900D02*
X91058800Y-174258900D01*
X91058800Y-174258900D02*
X90711400Y-174606300D01*
X90711400Y-174606300D02*
X87600300Y-174606300D01*
X87600300Y-174606300D02*
X87210400Y-174996200D01*
X87210400Y-174996200D02*
X86861100Y-174996200D01*
X86861100Y-174996200D02*
X86790300Y-175067000D01*
X86790300Y-175067000D02*
X85998600Y-175067000D01*
X85998600Y-175067000D02*
X85662100Y-175403500D01*
X85662100Y-175403500D02*
X82057900Y-175403500D01*
X82057900Y-175403500D02*
X81688000Y-175033600D01*
X66250000Y-159250000D02*
X66800000Y-159250000D01*
X66800000Y-159250000D02*
X69937200Y-159250000D01*
X69937200Y-159250000D02*
X75594800Y-164907600D01*
X75594800Y-164907600D02*
X75594800Y-165981500D01*
X75594800Y-165981500D02*
X79500800Y-169887500D01*
X79500800Y-169887500D02*
X79500800Y-172681400D01*
X79500800Y-172681400D02*
X81688000Y-174868600D01*
X81688000Y-174868600D02*
X81688000Y-175033600D01*
X66250000Y-166750000D02*
X66800000Y-166750000D01*
X66800000Y-166750000D02*
X67680200Y-166750000D01*
X67680200Y-166750000D02*
X70746800Y-169816600D01*
X70746800Y-169816600D02*
X72337500Y-169816600D01*
X125250000Y-166750000D02*
X124700000Y-166750000D01*
X124700000Y-166750000D02*
X123819800Y-166750000D01*
X123819800Y-166750000D02*
X123251000Y-167318800D01*
X123251000Y-167318800D02*
X118241900Y-167318800D01*
X118241900Y-167318800D02*
X117857500Y-166934400D01*
X125250000Y-158750000D02*
X124700000Y-158750000D01*
X124700000Y-158750000D02*
X123289900Y-158750000D01*
X123289900Y-158750000D02*
X122660400Y-158120500D01*
X122660400Y-158120500D02*
X114199300Y-158120500D01*
X114199300Y-158120500D02*
X101460700Y-170859100D01*
X101460700Y-170859100D02*
X95686500Y-170859100D01*
X95686500Y-170859100D02*
X92862800Y-173682800D01*
X92862800Y-173682800D02*
X90820200Y-173682800D01*
X90820200Y-173682800D02*
X90566400Y-173936600D01*
X90566400Y-173936600D02*
X87340900Y-173936600D01*
X87340900Y-173936600D02*
X86886100Y-174391400D01*
X86886100Y-174391400D02*
X86610600Y-174391400D01*
X86610600Y-174391400D02*
X86575200Y-174426800D01*
X86575200Y-174426800D02*
X83534300Y-174426800D01*
X83534300Y-174426800D02*
X83432700Y-174528400D01*
X66250000Y-158750000D02*
X66800000Y-158750000D01*
X66800000Y-158750000D02*
X70380700Y-158750000D01*
X70380700Y-158750000D02*
X76262000Y-164631300D01*
X76262000Y-164631300D02*
X76262000Y-165716600D01*
X76262000Y-165716600D02*
X80159900Y-169614500D01*
X80159900Y-169614500D02*
X80159900Y-171255600D01*
X80159900Y-171255600D02*
X83432700Y-174528400D01*
X125250000Y-167250000D02*
X124700000Y-167250000D01*
X124700000Y-167250000D02*
X124026900Y-167250000D01*
X124026900Y-167250000D02*
X123076000Y-168200900D01*
X123076000Y-168200900D02*
X113851100Y-168200900D01*
X113851100Y-168200900D02*
X109388300Y-172663700D01*
X109388300Y-172663700D02*
X104606600Y-172663700D01*
X104606600Y-172663700D02*
X102910700Y-174359600D01*
X102910700Y-174359600D02*
X97136400Y-174359600D01*
X97136400Y-174359600D02*
X94932800Y-176563200D01*
X94932800Y-176563200D02*
X92013300Y-176563200D01*
X92013300Y-176563200D02*
X91291100Y-177285400D01*
X91291100Y-177285400D02*
X89343900Y-177285400D01*
X89343900Y-177285400D02*
X89318200Y-177311100D01*
X89318200Y-177311100D02*
X88611600Y-177311100D01*
X88611600Y-177311100D02*
X88507300Y-177415400D01*
X88507300Y-177415400D02*
X87863100Y-177415400D01*
X87863100Y-177415400D02*
X87475600Y-177802900D01*
X87475600Y-177802900D02*
X87131800Y-177802900D01*
X66250000Y-167250000D02*
X66800000Y-167250000D01*
X66800000Y-167250000D02*
X67473100Y-167250000D01*
X67473100Y-167250000D02*
X71021800Y-170798700D01*
X71021800Y-170798700D02*
X72814000Y-170798700D01*
X66250000Y-158250000D02*
X66800000Y-158250000D01*
X66800000Y-158250000D02*
X70824100Y-158250000D01*
X70824100Y-158250000D02*
X76929100Y-164355000D01*
X76929100Y-164355000D02*
X76929100Y-165451700D01*
X76929100Y-165451700D02*
X80818900Y-169341500D01*
X80818900Y-169341500D02*
X80818900Y-170250700D01*
X80818900Y-170250700D02*
X84179800Y-173611600D01*
X84179800Y-173611600D02*
X86489300Y-173611600D01*
X125250000Y-158250000D02*
X124700000Y-158250000D01*
X124700000Y-158250000D02*
X123742500Y-158250000D01*
X123742500Y-158250000D02*
X122912900Y-157420400D01*
X122912900Y-157420400D02*
X113909300Y-157420400D01*
X113909300Y-157420400D02*
X101170700Y-170159000D01*
X101170700Y-170159000D02*
X95396500Y-170159000D01*
X95396500Y-170159000D02*
X92448700Y-173106800D01*
X92448700Y-173106800D02*
X90581600Y-173106800D01*
X90581600Y-173106800D02*
X90421600Y-173266800D01*
X90421600Y-173266800D02*
X86834100Y-173266800D01*
X86834100Y-173266800D02*
X86489300Y-173611600D01*
X125250000Y-167750000D02*
X124700000Y-167750000D01*
X124700000Y-167750000D02*
X124234000Y-167750000D01*
X124234000Y-167750000D02*
X123083000Y-168901000D01*
X123083000Y-168901000D02*
X114141000Y-168901000D01*
X114141000Y-168901000D02*
X109678200Y-173363800D01*
X109678200Y-173363800D02*
X104896500Y-173363800D01*
X104896500Y-173363800D02*
X103200600Y-175059700D01*
X103200600Y-175059700D02*
X97426400Y-175059700D01*
X97426400Y-175059700D02*
X95185600Y-177300500D01*
X95185600Y-177300500D02*
X92338200Y-177300500D01*
X92338200Y-177300500D02*
X92324400Y-177314300D01*
X73499600Y-171552400D02*
X73378200Y-171673800D01*
X73378200Y-171673800D02*
X71151600Y-171673800D01*
X71151600Y-171673800D02*
X67925000Y-168447200D01*
X67925000Y-168447200D02*
X67925000Y-168409000D01*
X67925000Y-168409000D02*
X67266000Y-167750000D01*
X67266000Y-167750000D02*
X66800000Y-167750000D01*
X66800000Y-167750000D02*
X66250000Y-167750000D01*
X125250000Y-157750000D02*
X124700000Y-157750000D01*
X124700000Y-157750000D02*
X124457900Y-157750000D01*
X124457900Y-157750000D02*
X123428200Y-156720300D01*
X123428200Y-156720300D02*
X113619300Y-156720300D01*
X113619300Y-156720300D02*
X100880700Y-169458900D01*
X100880700Y-169458900D02*
X95106500Y-169458900D01*
X95106500Y-169458900D02*
X92209700Y-172355700D01*
X92209700Y-172355700D02*
X90270400Y-172355700D01*
X90270400Y-172355700D02*
X90204100Y-172422000D01*
X66250000Y-157750000D02*
X66800000Y-157750000D01*
X66800000Y-157750000D02*
X71267700Y-157750000D01*
X71267700Y-157750000D02*
X77596300Y-164078600D01*
X77596300Y-164078600D02*
X77596300Y-165186800D01*
X77596300Y-165186800D02*
X81478000Y-169068500D01*
X81478000Y-169068500D02*
X81478000Y-169920900D01*
X81478000Y-169920900D02*
X83979100Y-172422000D01*
X83979100Y-172422000D02*
X90204100Y-172422000D01*
X74425100Y-172012800D02*
X74010400Y-172427500D01*
X74010400Y-172427500D02*
X70959600Y-172427500D01*
X70959600Y-172427500D02*
X67316800Y-168784700D01*
X67316800Y-168784700D02*
X67316800Y-168660900D01*
X67316800Y-168660900D02*
X67300000Y-168644100D01*
X67300000Y-168644100D02*
X67300000Y-168542900D01*
X67300000Y-168542900D02*
X67007100Y-168250000D01*
X67007100Y-168250000D02*
X66800000Y-168250000D01*
X66800000Y-168250000D02*
X66250000Y-168250000D01*
X125250000Y-168250000D02*
X124700000Y-168250000D01*
X124700000Y-168250000D02*
X124441100Y-168250000D01*
X124441100Y-168250000D02*
X123090000Y-169601100D01*
X123090000Y-169601100D02*
X114431000Y-169601100D01*
X114431000Y-169601100D02*
X109968200Y-174063900D01*
X109968200Y-174063900D02*
X105186500Y-174063900D01*
X105186500Y-174063900D02*
X103490600Y-175759800D01*
X103490600Y-175759800D02*
X97963900Y-175759800D01*
X97963900Y-175759800D02*
X96673900Y-177049800D01*
X125250000Y-157250000D02*
X124700000Y-157250000D01*
X124700000Y-157250000D02*
X124648100Y-157250000D01*
X124648100Y-157250000D02*
X123418300Y-156020200D01*
X123418300Y-156020200D02*
X113329300Y-156020200D01*
X113329300Y-156020200D02*
X100590700Y-168758800D01*
X100590700Y-168758800D02*
X93831900Y-168758800D01*
X93831900Y-168758800D02*
X91425300Y-171165400D01*
X66250000Y-157250000D02*
X66800000Y-157250000D01*
X66800000Y-157250000D02*
X71711100Y-157250000D01*
X71711100Y-157250000D02*
X78263400Y-163802300D01*
X78263400Y-163802300D02*
X78263400Y-164921900D01*
X78263400Y-164921900D02*
X82137000Y-168795500D01*
X82137000Y-168795500D02*
X82137000Y-169590900D01*
X82137000Y-169590900D02*
X84247100Y-171701000D01*
X84247100Y-171701000D02*
X89687600Y-171701000D01*
X89687600Y-171701000D02*
X90223200Y-171165400D01*
X90223200Y-171165400D02*
X91425300Y-171165400D01*
X75360000Y-171586400D02*
X75360000Y-172315500D01*
X75360000Y-172315500D02*
X74547900Y-173127600D01*
X74547900Y-173127600D02*
X70875800Y-173127600D01*
X70875800Y-173127600D02*
X66675000Y-168926800D01*
X66675000Y-168926800D02*
X66675000Y-168875000D01*
X66675000Y-168875000D02*
X66675000Y-168750000D01*
X66675000Y-168750000D02*
X66250000Y-168750000D01*
X125250000Y-168750000D02*
X124700000Y-168750000D01*
X124700000Y-168750000D02*
X124648200Y-168750000D01*
X124648200Y-168750000D02*
X123097000Y-170301200D01*
X123097000Y-170301200D02*
X114721000Y-170301200D01*
X114721000Y-170301200D02*
X110258200Y-174764000D01*
X110258200Y-174764000D02*
X105476500Y-174764000D01*
X105476500Y-174764000D02*
X103605600Y-176634900D01*
X103605600Y-176634900D02*
X100871500Y-176634900D01*
X83749800Y-159637400D02*
X83749800Y-158271800D01*
X83749800Y-158271800D02*
X84771600Y-157250000D01*
X84771600Y-157250000D02*
X85200000Y-157250000D01*
X85200000Y-157250000D02*
X85750000Y-157250000D01*
X144750000Y-157250000D02*
X144200000Y-157250000D01*
X144200000Y-157250000D02*
X140081100Y-157250000D01*
X140081100Y-157250000D02*
X123664600Y-140833500D01*
X123664600Y-140833500D02*
X96655800Y-140833500D01*
X96655800Y-140833500D02*
X93924100Y-143565200D01*
X93924100Y-143565200D02*
X93924100Y-147491500D01*
X93924100Y-147491500D02*
X94275900Y-147843300D01*
X94275900Y-147843300D02*
X94275900Y-149325900D01*
X94275900Y-149325900D02*
X86351800Y-157250000D01*
X86351800Y-157250000D02*
X86300000Y-157250000D01*
X86300000Y-157250000D02*
X85750000Y-157250000D01*
X144750000Y-168750000D02*
X144200000Y-168750000D01*
X144200000Y-168750000D02*
X142578500Y-168750000D01*
X142578500Y-168750000D02*
X133745000Y-177583500D01*
X133745000Y-177583500D02*
X126126100Y-177583500D01*
X126126100Y-177583500D02*
X125797700Y-177255100D01*
X125797700Y-177255100D02*
X124415600Y-177255100D01*
X124415600Y-177255100D02*
X121662300Y-174501800D01*
X121662300Y-174501800D02*
X118054300Y-174501800D01*
X118054300Y-174501800D02*
X114656200Y-177899900D01*
X114656200Y-177899900D02*
X108888100Y-177899900D01*
X108888100Y-177899900D02*
X108738100Y-177749900D01*
X85750000Y-168750000D02*
X86300000Y-168750000D01*
X86300000Y-168750000D02*
X86352600Y-168802600D01*
X86352600Y-168802600D02*
X88004500Y-168802600D01*
X88004500Y-168802600D02*
X88081500Y-168725600D01*
X112245300Y-175004600D02*
X115548500Y-171701400D01*
X115548500Y-171701400D02*
X129224800Y-171701400D01*
X129224800Y-171701400D02*
X141676200Y-159250000D01*
X141676200Y-159250000D02*
X144200000Y-159250000D01*
X144200000Y-159250000D02*
X144750000Y-159250000D01*
X113136800Y-175624600D02*
X116359900Y-172401500D01*
X116359900Y-172401500D02*
X122683200Y-172401500D01*
X122683200Y-172401500D02*
X125614600Y-175332900D01*
X125614600Y-175332900D02*
X126593900Y-175332900D01*
X126593900Y-175332900D02*
X126796400Y-175535400D01*
X126796400Y-175535400D02*
X132822800Y-175535400D01*
X132822800Y-175535400D02*
X141608200Y-166750000D01*
X141608200Y-166750000D02*
X144200000Y-166750000D01*
X144200000Y-166750000D02*
X144750000Y-166750000D01*
X86907600Y-166489700D02*
X86647300Y-166750000D01*
X86647300Y-166750000D02*
X86300000Y-166750000D01*
X86300000Y-166750000D02*
X85750000Y-166750000D01*
X126106200Y-174332100D02*
X126593700Y-173844600D01*
X126593700Y-173844600D02*
X128071700Y-173844600D01*
X128071700Y-173844600D02*
X141666300Y-160250000D01*
X141666300Y-160250000D02*
X144200000Y-160250000D01*
X144200000Y-160250000D02*
X144750000Y-160250000D01*
X127134300Y-174719700D02*
X127197700Y-174783100D01*
X127197700Y-174783100D02*
X132585100Y-174783100D01*
X132585100Y-174783100D02*
X141419100Y-165949100D01*
X141419100Y-165949100D02*
X143224200Y-165949100D01*
X143224200Y-165949100D02*
X143423300Y-165750000D01*
X143423300Y-165750000D02*
X144200000Y-165750000D01*
X144200000Y-165750000D02*
X144750000Y-165750000D01*
X87697000Y-165791500D02*
X87578400Y-165672900D01*
X87578400Y-165672900D02*
X86569300Y-165672900D01*
X86569300Y-165672900D02*
X86492200Y-165750000D01*
X86492200Y-165750000D02*
X86300000Y-165750000D01*
X86300000Y-165750000D02*
X85750000Y-165750000D01*
X129602600Y-173836400D02*
X129602600Y-173303800D01*
X129602600Y-173303800D02*
X141656400Y-161250000D01*
X141656400Y-161250000D02*
X144200000Y-161250000D01*
X144200000Y-161250000D02*
X144750000Y-161250000D01*
X130657700Y-173908000D02*
X132470100Y-173908000D01*
X132470100Y-173908000D02*
X141129100Y-165249000D01*
X141129100Y-165249000D02*
X142792400Y-165249000D01*
X142792400Y-165249000D02*
X143091800Y-164949600D01*
X143091800Y-164949600D02*
X143812100Y-164949600D01*
X143812100Y-164949600D02*
X144011700Y-164750000D01*
X144011700Y-164750000D02*
X144200000Y-164750000D01*
X144200000Y-164750000D02*
X144750000Y-164750000D01*
X87160800Y-164856100D02*
X87054700Y-164750000D01*
X87054700Y-164750000D02*
X86300000Y-164750000D01*
X86300000Y-164750000D02*
X85750000Y-164750000D01*
X131676700Y-172473200D02*
X131676700Y-172219800D01*
X131676700Y-172219800D02*
X141770400Y-162126100D01*
X141770400Y-162126100D02*
X143629900Y-162126100D01*
X143629900Y-162126100D02*
X143753800Y-162250000D01*
X143753800Y-162250000D02*
X144200000Y-162250000D01*
X144200000Y-162250000D02*
X144750000Y-162250000D01*
X132742800Y-172391300D02*
X140484400Y-164649700D01*
X140484400Y-164649700D02*
X142871900Y-164649700D01*
X142871900Y-164649700D02*
X143771600Y-163750000D01*
X143771600Y-163750000D02*
X144200000Y-163750000D01*
X144200000Y-163750000D02*
X144750000Y-163750000D01*
X86935100Y-163804900D02*
X86880200Y-163750000D01*
X86880200Y-163750000D02*
X86300000Y-163750000D01*
X86300000Y-163750000D02*
X85750000Y-163750000D01*
X90820000Y-163251000D02*
X91965000Y-163003500D01*
X91965000Y-163003500D02*
X92090000Y-163003500D01*
X92090000Y-163003500D02*
X95246200Y-163003500D01*
X95246200Y-163003500D02*
X95758800Y-162490900D01*
X95758800Y-162490900D02*
X95758800Y-158250200D01*
X95758800Y-158250200D02*
X109000000Y-145009000D01*
X141472300Y-175599800D02*
X141479600Y-175599800D01*
X141479600Y-175599800D02*
X144328000Y-178448200D01*
X144328000Y-178448200D02*
X144328000Y-178500000D01*
X144328000Y-178500000D02*
X144328000Y-178625000D01*
X144328000Y-178625000D02*
X144965000Y-181500000D01*
X129912500Y-155000000D02*
X129473200Y-154373200D01*
X129473200Y-154373200D02*
X128723100Y-153623100D01*
X128723100Y-153623100D02*
X127085900Y-153623100D01*
X75050000Y-155000000D02*
X75321800Y-155724000D01*
X75321800Y-155724000D02*
X75321800Y-157441900D01*
X75321800Y-157441900D02*
X81192700Y-163312800D01*
X81192700Y-163312800D02*
X81192700Y-165055100D01*
X81192700Y-165055100D02*
X84114200Y-167976600D01*
X84114200Y-167976600D02*
X84114200Y-168601400D01*
X84114200Y-168601400D02*
X85113500Y-169600700D01*
X85113500Y-169600700D02*
X88460700Y-169600700D01*
X88460700Y-169600700D02*
X89902900Y-168158500D01*
X89902900Y-168158500D02*
X89902900Y-166774300D01*
X119175000Y-147135000D02*
X118405100Y-147323800D01*
X118405100Y-147323800D02*
X118403200Y-147323800D01*
X118403200Y-147323800D02*
X99068500Y-166658500D01*
X99068500Y-166658500D02*
X90018700Y-166658500D01*
X90018700Y-166658500D02*
X89902900Y-166774300D01*
X85750000Y-162750000D02*
X86300000Y-162750000D01*
X86300000Y-162750000D02*
X87117800Y-162750000D01*
X87117800Y-162750000D02*
X88035900Y-163668100D01*
X88035900Y-163668100D02*
X88035900Y-165027000D01*
X88035900Y-165027000D02*
X88477200Y-165468300D01*
X88477200Y-165468300D02*
X88477200Y-165502100D01*
X88477200Y-165502100D02*
X89749400Y-166774300D01*
X89749400Y-166774300D02*
X89902900Y-166774300D01*
X134837300Y-157033300D02*
X134364700Y-156560700D01*
X134364700Y-156560700D02*
X134364700Y-155716400D01*
X134364700Y-155716400D02*
X134050000Y-155000000D01*
X144750000Y-162750000D02*
X144200000Y-162750000D01*
X144200000Y-162750000D02*
X144044700Y-162750000D01*
X144044700Y-162750000D02*
X143944900Y-162849800D01*
X143944900Y-162849800D02*
X143418800Y-162849800D01*
X143418800Y-162849800D02*
X143267400Y-163001200D01*
X96675000Y-147135000D02*
X95914000Y-146921600D01*
X95914000Y-146921600D02*
X95324300Y-146331900D01*
X95324300Y-146331900D02*
X95324300Y-144145200D01*
X95324300Y-144145200D02*
X97235800Y-142233700D01*
X97235800Y-142233700D02*
X119025500Y-142233700D01*
X119025500Y-142233700D02*
X131252100Y-154460300D01*
X131252100Y-154460300D02*
X133558500Y-154460300D01*
X133558500Y-154460300D02*
X134050000Y-155000000D01*
X113825000Y-148405000D02*
X114585900Y-148191600D01*
X114585900Y-148191600D02*
X115175700Y-147601800D01*
X115175700Y-147601800D02*
X115175700Y-144145300D01*
X115175700Y-144145300D02*
X114664300Y-143633900D01*
X114664300Y-143633900D02*
X102755100Y-143633900D01*
X102755100Y-143633900D02*
X101380000Y-145009000D01*
X92700700Y-148495800D02*
X92166400Y-148495800D01*
X92166400Y-148495800D02*
X92100600Y-148430000D01*
X92100600Y-148430000D02*
X91975600Y-148430000D01*
X91975600Y-148430000D02*
X91325000Y-148405000D01*
X106392700Y-149600700D02*
X110776300Y-149600700D01*
X110776300Y-149600700D02*
X113053200Y-147323800D01*
X113053200Y-147323800D02*
X113055100Y-147323800D01*
X113055100Y-147323800D02*
X113825000Y-147135000D01*
X66250000Y-162750000D02*
X66800000Y-162750000D01*
X66800000Y-162750000D02*
X66995800Y-162750000D01*
X66995800Y-162750000D02*
X68193200Y-163947400D01*
X125250000Y-162750000D02*
X125800000Y-162750000D01*
X125800000Y-162750000D02*
X126007100Y-162750000D01*
X126007100Y-162750000D02*
X127075200Y-161681900D01*
X127075200Y-161681900D02*
X127075200Y-156596800D01*
X127075200Y-156596800D02*
X125098400Y-154620000D01*
X125098400Y-154620000D02*
X112749300Y-154620000D01*
X112749300Y-154620000D02*
X100010700Y-167358600D01*
X100010700Y-167358600D02*
X92049700Y-167358600D01*
X92049700Y-167358600D02*
X89107500Y-170300800D01*
X89107500Y-170300800D02*
X84824700Y-170300800D01*
X84824700Y-170300800D02*
X83455100Y-168931200D01*
X83455100Y-168931200D02*
X83455100Y-168249600D01*
X83455100Y-168249600D02*
X79663600Y-164458100D01*
X79663600Y-164458100D02*
X79663600Y-162773800D01*
X79663600Y-162773800D02*
X73973900Y-157084100D01*
X73973900Y-157084100D02*
X73973900Y-154184200D01*
X73973900Y-154184200D02*
X74459200Y-153698900D01*
X74459200Y-153698900D02*
X84213500Y-153698900D01*
X84213500Y-153698900D02*
X90564000Y-147348400D01*
X90564000Y-147348400D02*
X91325000Y-147135000D01*
M02*
