G04 #@! TF.GenerationSoftware,KiCad,Pcbnew,(5.1.10)-1*
G04 #@! TF.CreationDate,2024-02-11T23:09:16+03:00*
G04 #@! TF.ProjectId,4m_cy62167e_x2,346d5f63-7936-4323-9136-37655f78322e,1*
G04 #@! TF.SameCoordinates,Original*
G04 #@! TF.FileFunction,Soldermask,Top*
G04 #@! TF.FilePolarity,Negative*
%FSLAX46Y46*%
G04 Gerber Fmt 4.6, Leading zero omitted, Abs format (unit mm)*
G04 Created by KiCad (PCBNEW (5.1.10)-1) date 2024-02-11 23:09:16*
%MOMM*%
%LPD*%
G01*
G04 APERTURE LIST*
%ADD10O,1.600000X1.600000*%
%ADD11R,1.600000X1.600000*%
%ADD12R,1.100000X0.250000*%
%ADD13C,8.000000*%
%ADD14R,2.540000X3.510000*%
%ADD15C,0.254000*%
%ADD16C,0.100000*%
G04 APERTURE END LIST*
G36*
G01*
X95900000Y-144745000D02*
X95900000Y-144445000D01*
G75*
G02*
X96050000Y-144295000I150000J0D01*
G01*
X97300000Y-144295000D01*
G75*
G02*
X97450000Y-144445000I0J-150000D01*
G01*
X97450000Y-144745000D01*
G75*
G02*
X97300000Y-144895000I-150000J0D01*
G01*
X96050000Y-144895000D01*
G75*
G02*
X95900000Y-144745000I0J150000D01*
G01*
G37*
G36*
G01*
X95900000Y-146015000D02*
X95900000Y-145715000D01*
G75*
G02*
X96050000Y-145565000I150000J0D01*
G01*
X97300000Y-145565000D01*
G75*
G02*
X97450000Y-145715000I0J-150000D01*
G01*
X97450000Y-146015000D01*
G75*
G02*
X97300000Y-146165000I-150000J0D01*
G01*
X96050000Y-146165000D01*
G75*
G02*
X95900000Y-146015000I0J150000D01*
G01*
G37*
G36*
G01*
X95900000Y-147285000D02*
X95900000Y-146985000D01*
G75*
G02*
X96050000Y-146835000I150000J0D01*
G01*
X97300000Y-146835000D01*
G75*
G02*
X97450000Y-146985000I0J-150000D01*
G01*
X97450000Y-147285000D01*
G75*
G02*
X97300000Y-147435000I-150000J0D01*
G01*
X96050000Y-147435000D01*
G75*
G02*
X95900000Y-147285000I0J150000D01*
G01*
G37*
G36*
G01*
X95900000Y-148555000D02*
X95900000Y-148255000D01*
G75*
G02*
X96050000Y-148105000I150000J0D01*
G01*
X97300000Y-148105000D01*
G75*
G02*
X97450000Y-148255000I0J-150000D01*
G01*
X97450000Y-148555000D01*
G75*
G02*
X97300000Y-148705000I-150000J0D01*
G01*
X96050000Y-148705000D01*
G75*
G02*
X95900000Y-148555000I0J150000D01*
G01*
G37*
G36*
G01*
X90550000Y-148555000D02*
X90550000Y-148255000D01*
G75*
G02*
X90700000Y-148105000I150000J0D01*
G01*
X91950000Y-148105000D01*
G75*
G02*
X92100000Y-148255000I0J-150000D01*
G01*
X92100000Y-148555000D01*
G75*
G02*
X91950000Y-148705000I-150000J0D01*
G01*
X90700000Y-148705000D01*
G75*
G02*
X90550000Y-148555000I0J150000D01*
G01*
G37*
G36*
G01*
X90550000Y-147285000D02*
X90550000Y-146985000D01*
G75*
G02*
X90700000Y-146835000I150000J0D01*
G01*
X91950000Y-146835000D01*
G75*
G02*
X92100000Y-146985000I0J-150000D01*
G01*
X92100000Y-147285000D01*
G75*
G02*
X91950000Y-147435000I-150000J0D01*
G01*
X90700000Y-147435000D01*
G75*
G02*
X90550000Y-147285000I0J150000D01*
G01*
G37*
G36*
G01*
X90550000Y-146015000D02*
X90550000Y-145715000D01*
G75*
G02*
X90700000Y-145565000I150000J0D01*
G01*
X91950000Y-145565000D01*
G75*
G02*
X92100000Y-145715000I0J-150000D01*
G01*
X92100000Y-146015000D01*
G75*
G02*
X91950000Y-146165000I-150000J0D01*
G01*
X90700000Y-146165000D01*
G75*
G02*
X90550000Y-146015000I0J150000D01*
G01*
G37*
G36*
G01*
X90550000Y-144745000D02*
X90550000Y-144445000D01*
G75*
G02*
X90700000Y-144295000I150000J0D01*
G01*
X91950000Y-144295000D01*
G75*
G02*
X92100000Y-144445000I0J-150000D01*
G01*
X92100000Y-144745000D01*
G75*
G02*
X91950000Y-144895000I-150000J0D01*
G01*
X90700000Y-144895000D01*
G75*
G02*
X90550000Y-144745000I0J150000D01*
G01*
G37*
G36*
G01*
X118400000Y-144745000D02*
X118400000Y-144445000D01*
G75*
G02*
X118550000Y-144295000I150000J0D01*
G01*
X119800000Y-144295000D01*
G75*
G02*
X119950000Y-144445000I0J-150000D01*
G01*
X119950000Y-144745000D01*
G75*
G02*
X119800000Y-144895000I-150000J0D01*
G01*
X118550000Y-144895000D01*
G75*
G02*
X118400000Y-144745000I0J150000D01*
G01*
G37*
G36*
G01*
X118400000Y-146015000D02*
X118400000Y-145715000D01*
G75*
G02*
X118550000Y-145565000I150000J0D01*
G01*
X119800000Y-145565000D01*
G75*
G02*
X119950000Y-145715000I0J-150000D01*
G01*
X119950000Y-146015000D01*
G75*
G02*
X119800000Y-146165000I-150000J0D01*
G01*
X118550000Y-146165000D01*
G75*
G02*
X118400000Y-146015000I0J150000D01*
G01*
G37*
G36*
G01*
X118400000Y-147285000D02*
X118400000Y-146985000D01*
G75*
G02*
X118550000Y-146835000I150000J0D01*
G01*
X119800000Y-146835000D01*
G75*
G02*
X119950000Y-146985000I0J-150000D01*
G01*
X119950000Y-147285000D01*
G75*
G02*
X119800000Y-147435000I-150000J0D01*
G01*
X118550000Y-147435000D01*
G75*
G02*
X118400000Y-147285000I0J150000D01*
G01*
G37*
G36*
G01*
X118400000Y-148555000D02*
X118400000Y-148255000D01*
G75*
G02*
X118550000Y-148105000I150000J0D01*
G01*
X119800000Y-148105000D01*
G75*
G02*
X119950000Y-148255000I0J-150000D01*
G01*
X119950000Y-148555000D01*
G75*
G02*
X119800000Y-148705000I-150000J0D01*
G01*
X118550000Y-148705000D01*
G75*
G02*
X118400000Y-148555000I0J150000D01*
G01*
G37*
G36*
G01*
X113050000Y-148555000D02*
X113050000Y-148255000D01*
G75*
G02*
X113200000Y-148105000I150000J0D01*
G01*
X114450000Y-148105000D01*
G75*
G02*
X114600000Y-148255000I0J-150000D01*
G01*
X114600000Y-148555000D01*
G75*
G02*
X114450000Y-148705000I-150000J0D01*
G01*
X113200000Y-148705000D01*
G75*
G02*
X113050000Y-148555000I0J150000D01*
G01*
G37*
G36*
G01*
X113050000Y-147285000D02*
X113050000Y-146985000D01*
G75*
G02*
X113200000Y-146835000I150000J0D01*
G01*
X114450000Y-146835000D01*
G75*
G02*
X114600000Y-146985000I0J-150000D01*
G01*
X114600000Y-147285000D01*
G75*
G02*
X114450000Y-147435000I-150000J0D01*
G01*
X113200000Y-147435000D01*
G75*
G02*
X113050000Y-147285000I0J150000D01*
G01*
G37*
G36*
G01*
X113050000Y-146015000D02*
X113050000Y-145715000D01*
G75*
G02*
X113200000Y-145565000I150000J0D01*
G01*
X114450000Y-145565000D01*
G75*
G02*
X114600000Y-145715000I0J-150000D01*
G01*
X114600000Y-146015000D01*
G75*
G02*
X114450000Y-146165000I-150000J0D01*
G01*
X113200000Y-146165000D01*
G75*
G02*
X113050000Y-146015000I0J150000D01*
G01*
G37*
G36*
G01*
X113050000Y-144745000D02*
X113050000Y-144445000D01*
G75*
G02*
X113200000Y-144295000I150000J0D01*
G01*
X114450000Y-144295000D01*
G75*
G02*
X114600000Y-144445000I0J-150000D01*
G01*
X114600000Y-144745000D01*
G75*
G02*
X114450000Y-144895000I-150000J0D01*
G01*
X113200000Y-144895000D01*
G75*
G02*
X113050000Y-144745000I0J150000D01*
G01*
G37*
G36*
G01*
X129400000Y-155450001D02*
X129400000Y-154549999D01*
G75*
G02*
X129649999Y-154300000I249999J0D01*
G01*
X130175001Y-154300000D01*
G75*
G02*
X130425000Y-154549999I0J-249999D01*
G01*
X130425000Y-155450001D01*
G75*
G02*
X130175001Y-155700000I-249999J0D01*
G01*
X129649999Y-155700000D01*
G75*
G02*
X129400000Y-155450001I0J249999D01*
G01*
G37*
G36*
G01*
X127575000Y-155450001D02*
X127575000Y-154549999D01*
G75*
G02*
X127824999Y-154300000I249999J0D01*
G01*
X128350001Y-154300000D01*
G75*
G02*
X128600000Y-154549999I0J-249999D01*
G01*
X128600000Y-155450001D01*
G75*
G02*
X128350001Y-155700000I-249999J0D01*
G01*
X127824999Y-155700000D01*
G75*
G02*
X127575000Y-155450001I0J249999D01*
G01*
G37*
D10*
X101380000Y-147549000D03*
X109000000Y-145009000D03*
X101380000Y-145009000D03*
D11*
X109000000Y-147549000D03*
D12*
X85750000Y-157250000D03*
X85750000Y-157750000D03*
X85750000Y-158250000D03*
X85750000Y-158750000D03*
X85750000Y-159250000D03*
X85750000Y-159750000D03*
X85750000Y-160250000D03*
X85750000Y-160750000D03*
X85750000Y-161250000D03*
X85750000Y-161750000D03*
X85750000Y-162250000D03*
X85750000Y-162750000D03*
X85750000Y-163250000D03*
X85750000Y-163750000D03*
X85750000Y-164250000D03*
X85750000Y-164750000D03*
X85750000Y-165250000D03*
X85750000Y-165750000D03*
X85750000Y-166250000D03*
X85750000Y-166750000D03*
X85750000Y-167250000D03*
X85750000Y-167750000D03*
X85750000Y-168250000D03*
X66250000Y-168750000D03*
X66250000Y-168250000D03*
X66250000Y-167750000D03*
X66250000Y-167250000D03*
X66250000Y-166750000D03*
X66250000Y-166250000D03*
X66250000Y-165750000D03*
X66250000Y-165250000D03*
X66250000Y-164750000D03*
X66250000Y-164250000D03*
X66250000Y-163750000D03*
X66250000Y-163250000D03*
X66250000Y-162750000D03*
X66250000Y-162250000D03*
X66250000Y-161750000D03*
X66250000Y-161250000D03*
X66250000Y-160750000D03*
X66250000Y-160250000D03*
X66250000Y-159750000D03*
X66250000Y-159250000D03*
X66250000Y-158750000D03*
X66250000Y-158250000D03*
X66250000Y-157750000D03*
X85750000Y-168750000D03*
X66250000Y-157250000D03*
X144750000Y-157250000D03*
X144750000Y-157750000D03*
X144750000Y-158250000D03*
X144750000Y-158750000D03*
X144750000Y-159250000D03*
X144750000Y-159750000D03*
X144750000Y-160250000D03*
X144750000Y-160750000D03*
X144750000Y-161250000D03*
X144750000Y-161750000D03*
X144750000Y-162250000D03*
X144750000Y-162750000D03*
X144750000Y-163250000D03*
X144750000Y-163750000D03*
X144750000Y-164250000D03*
X144750000Y-164750000D03*
X144750000Y-165250000D03*
X144750000Y-165750000D03*
X144750000Y-166250000D03*
X144750000Y-166750000D03*
X144750000Y-167250000D03*
X144750000Y-167750000D03*
X144750000Y-168250000D03*
X125250000Y-168750000D03*
X125250000Y-168250000D03*
X125250000Y-167750000D03*
X125250000Y-167250000D03*
X125250000Y-166750000D03*
X125250000Y-166250000D03*
X125250000Y-165750000D03*
X125250000Y-165250000D03*
X125250000Y-164750000D03*
X125250000Y-164250000D03*
X125250000Y-163750000D03*
X125250000Y-163250000D03*
X125250000Y-162750000D03*
X125250000Y-162250000D03*
X125250000Y-161750000D03*
X125250000Y-161250000D03*
X125250000Y-160750000D03*
X125250000Y-160250000D03*
X125250000Y-159750000D03*
X125250000Y-159250000D03*
X125250000Y-158750000D03*
X125250000Y-158250000D03*
X125250000Y-157750000D03*
X144750000Y-168750000D03*
X125250000Y-157250000D03*
D13*
X70600000Y-149500000D03*
G36*
G01*
X64463000Y-184500000D02*
X64463000Y-178500000D01*
G75*
G02*
X65463000Y-177500000I1000000J0D01*
G01*
X66987000Y-177500000D01*
G75*
G02*
X67987000Y-178500000I0J-1000000D01*
G01*
X67987000Y-184500000D01*
G75*
G02*
X66987000Y-185500000I-1000000J0D01*
G01*
X65463000Y-185500000D01*
G75*
G02*
X64463000Y-184500000I0J1000000D01*
G01*
G37*
G36*
G01*
X67003000Y-184500000D02*
X67003000Y-178500000D01*
G75*
G02*
X68003000Y-177500000I1000000J0D01*
G01*
X69527000Y-177500000D01*
G75*
G02*
X70527000Y-178500000I0J-1000000D01*
G01*
X70527000Y-184500000D01*
G75*
G02*
X69527000Y-185500000I-1000000J0D01*
G01*
X68003000Y-185500000D01*
G75*
G02*
X67003000Y-184500000I0J1000000D01*
G01*
G37*
G36*
G01*
X69543000Y-184500000D02*
X69543000Y-178500000D01*
G75*
G02*
X70543000Y-177500000I1000000J0D01*
G01*
X72067000Y-177500000D01*
G75*
G02*
X73067000Y-178500000I0J-1000000D01*
G01*
X73067000Y-184500000D01*
G75*
G02*
X72067000Y-185500000I-1000000J0D01*
G01*
X70543000Y-185500000D01*
G75*
G02*
X69543000Y-184500000I0J1000000D01*
G01*
G37*
G36*
G01*
X72083000Y-184500000D02*
X72083000Y-178500000D01*
G75*
G02*
X73083000Y-177500000I1000000J0D01*
G01*
X74607000Y-177500000D01*
G75*
G02*
X75607000Y-178500000I0J-1000000D01*
G01*
X75607000Y-184500000D01*
G75*
G02*
X74607000Y-185500000I-1000000J0D01*
G01*
X73083000Y-185500000D01*
G75*
G02*
X72083000Y-184500000I0J1000000D01*
G01*
G37*
G36*
G01*
X74623000Y-184500000D02*
X74623000Y-178500000D01*
G75*
G02*
X75623000Y-177500000I1000000J0D01*
G01*
X77147000Y-177500000D01*
G75*
G02*
X78147000Y-178500000I0J-1000000D01*
G01*
X78147000Y-184500000D01*
G75*
G02*
X77147000Y-185500000I-1000000J0D01*
G01*
X75623000Y-185500000D01*
G75*
G02*
X74623000Y-184500000I0J1000000D01*
G01*
G37*
G36*
G01*
X77163000Y-184500000D02*
X77163000Y-178500000D01*
G75*
G02*
X78163000Y-177500000I1000000J0D01*
G01*
X79687000Y-177500000D01*
G75*
G02*
X80687000Y-178500000I0J-1000000D01*
G01*
X80687000Y-184500000D01*
G75*
G02*
X79687000Y-185500000I-1000000J0D01*
G01*
X78163000Y-185500000D01*
G75*
G02*
X77163000Y-184500000I0J1000000D01*
G01*
G37*
G36*
G01*
X79703000Y-184500000D02*
X79703000Y-178500000D01*
G75*
G02*
X80703000Y-177500000I1000000J0D01*
G01*
X82227000Y-177500000D01*
G75*
G02*
X83227000Y-178500000I0J-1000000D01*
G01*
X83227000Y-184500000D01*
G75*
G02*
X82227000Y-185500000I-1000000J0D01*
G01*
X80703000Y-185500000D01*
G75*
G02*
X79703000Y-184500000I0J1000000D01*
G01*
G37*
G36*
G01*
X82243000Y-184500000D02*
X82243000Y-178500000D01*
G75*
G02*
X83243000Y-177500000I1000000J0D01*
G01*
X84767000Y-177500000D01*
G75*
G02*
X85767000Y-178500000I0J-1000000D01*
G01*
X85767000Y-184500000D01*
G75*
G02*
X84767000Y-185500000I-1000000J0D01*
G01*
X83243000Y-185500000D01*
G75*
G02*
X82243000Y-184500000I0J1000000D01*
G01*
G37*
G36*
G01*
X84783000Y-184500000D02*
X84783000Y-178500000D01*
G75*
G02*
X85783000Y-177500000I1000000J0D01*
G01*
X87307000Y-177500000D01*
G75*
G02*
X88307000Y-178500000I0J-1000000D01*
G01*
X88307000Y-184500000D01*
G75*
G02*
X87307000Y-185500000I-1000000J0D01*
G01*
X85783000Y-185500000D01*
G75*
G02*
X84783000Y-184500000I0J1000000D01*
G01*
G37*
G36*
G01*
X87323000Y-184500000D02*
X87323000Y-178500000D01*
G75*
G02*
X88323000Y-177500000I1000000J0D01*
G01*
X89847000Y-177500000D01*
G75*
G02*
X90847000Y-178500000I0J-1000000D01*
G01*
X90847000Y-184500000D01*
G75*
G02*
X89847000Y-185500000I-1000000J0D01*
G01*
X88323000Y-185500000D01*
G75*
G02*
X87323000Y-184500000I0J1000000D01*
G01*
G37*
G36*
G01*
X89863000Y-184500000D02*
X89863000Y-178500000D01*
G75*
G02*
X90863000Y-177500000I1000000J0D01*
G01*
X92387000Y-177500000D01*
G75*
G02*
X93387000Y-178500000I0J-1000000D01*
G01*
X93387000Y-184500000D01*
G75*
G02*
X92387000Y-185500000I-1000000J0D01*
G01*
X90863000Y-185500000D01*
G75*
G02*
X89863000Y-184500000I0J1000000D01*
G01*
G37*
G36*
G01*
X92403000Y-184500000D02*
X92403000Y-178500000D01*
G75*
G02*
X93403000Y-177500000I1000000J0D01*
G01*
X94927000Y-177500000D01*
G75*
G02*
X95927000Y-178500000I0J-1000000D01*
G01*
X95927000Y-184500000D01*
G75*
G02*
X94927000Y-185500000I-1000000J0D01*
G01*
X93403000Y-185500000D01*
G75*
G02*
X92403000Y-184500000I0J1000000D01*
G01*
G37*
G36*
G01*
X94943000Y-184500000D02*
X94943000Y-178500000D01*
G75*
G02*
X95943000Y-177500000I1000000J0D01*
G01*
X97467000Y-177500000D01*
G75*
G02*
X98467000Y-178500000I0J-1000000D01*
G01*
X98467000Y-184500000D01*
G75*
G02*
X97467000Y-185500000I-1000000J0D01*
G01*
X95943000Y-185500000D01*
G75*
G02*
X94943000Y-184500000I0J1000000D01*
G01*
G37*
G36*
G01*
X97483000Y-184500000D02*
X97483000Y-178500000D01*
G75*
G02*
X98483000Y-177500000I1000000J0D01*
G01*
X100007000Y-177500000D01*
G75*
G02*
X101007000Y-178500000I0J-1000000D01*
G01*
X101007000Y-184500000D01*
G75*
G02*
X100007000Y-185500000I-1000000J0D01*
G01*
X98483000Y-185500000D01*
G75*
G02*
X97483000Y-184500000I0J1000000D01*
G01*
G37*
G36*
G01*
X100023000Y-184500000D02*
X100023000Y-178500000D01*
G75*
G02*
X101023000Y-177500000I1000000J0D01*
G01*
X102547000Y-177500000D01*
G75*
G02*
X103547000Y-178500000I0J-1000000D01*
G01*
X103547000Y-184500000D01*
G75*
G02*
X102547000Y-185500000I-1000000J0D01*
G01*
X101023000Y-185500000D01*
G75*
G02*
X100023000Y-184500000I0J1000000D01*
G01*
G37*
G36*
G01*
X102563000Y-184500000D02*
X102563000Y-178500000D01*
G75*
G02*
X103563000Y-177500000I1000000J0D01*
G01*
X105087000Y-177500000D01*
G75*
G02*
X106087000Y-178500000I0J-1000000D01*
G01*
X106087000Y-184500000D01*
G75*
G02*
X105087000Y-185500000I-1000000J0D01*
G01*
X103563000Y-185500000D01*
G75*
G02*
X102563000Y-184500000I0J1000000D01*
G01*
G37*
G36*
G01*
X105103000Y-184500000D02*
X105103000Y-178500000D01*
G75*
G02*
X106103000Y-177500000I1000000J0D01*
G01*
X107627000Y-177500000D01*
G75*
G02*
X108627000Y-178500000I0J-1000000D01*
G01*
X108627000Y-184500000D01*
G75*
G02*
X107627000Y-185500000I-1000000J0D01*
G01*
X106103000Y-185500000D01*
G75*
G02*
X105103000Y-184500000I0J1000000D01*
G01*
G37*
G36*
G01*
X107643000Y-184500000D02*
X107643000Y-178500000D01*
G75*
G02*
X108643000Y-177500000I1000000J0D01*
G01*
X110167000Y-177500000D01*
G75*
G02*
X111167000Y-178500000I0J-1000000D01*
G01*
X111167000Y-184500000D01*
G75*
G02*
X110167000Y-185500000I-1000000J0D01*
G01*
X108643000Y-185500000D01*
G75*
G02*
X107643000Y-184500000I0J1000000D01*
G01*
G37*
G36*
G01*
X110183000Y-184500000D02*
X110183000Y-178500000D01*
G75*
G02*
X111183000Y-177500000I1000000J0D01*
G01*
X112707000Y-177500000D01*
G75*
G02*
X113707000Y-178500000I0J-1000000D01*
G01*
X113707000Y-184500000D01*
G75*
G02*
X112707000Y-185500000I-1000000J0D01*
G01*
X111183000Y-185500000D01*
G75*
G02*
X110183000Y-184500000I0J1000000D01*
G01*
G37*
G36*
G01*
X112723000Y-184500000D02*
X112723000Y-178500000D01*
G75*
G02*
X113723000Y-177500000I1000000J0D01*
G01*
X115247000Y-177500000D01*
G75*
G02*
X116247000Y-178500000I0J-1000000D01*
G01*
X116247000Y-184500000D01*
G75*
G02*
X115247000Y-185500000I-1000000J0D01*
G01*
X113723000Y-185500000D01*
G75*
G02*
X112723000Y-184500000I0J1000000D01*
G01*
G37*
G36*
G01*
X115263000Y-184500000D02*
X115263000Y-178500000D01*
G75*
G02*
X116263000Y-177500000I1000000J0D01*
G01*
X117787000Y-177500000D01*
G75*
G02*
X118787000Y-178500000I0J-1000000D01*
G01*
X118787000Y-184500000D01*
G75*
G02*
X117787000Y-185500000I-1000000J0D01*
G01*
X116263000Y-185500000D01*
G75*
G02*
X115263000Y-184500000I0J1000000D01*
G01*
G37*
G36*
G01*
X117803000Y-184500000D02*
X117803000Y-178500000D01*
G75*
G02*
X118803000Y-177500000I1000000J0D01*
G01*
X120327000Y-177500000D01*
G75*
G02*
X121327000Y-178500000I0J-1000000D01*
G01*
X121327000Y-184500000D01*
G75*
G02*
X120327000Y-185500000I-1000000J0D01*
G01*
X118803000Y-185500000D01*
G75*
G02*
X117803000Y-184500000I0J1000000D01*
G01*
G37*
G36*
G01*
X120343000Y-184500000D02*
X120343000Y-178500000D01*
G75*
G02*
X121343000Y-177500000I1000000J0D01*
G01*
X122867000Y-177500000D01*
G75*
G02*
X123867000Y-178500000I0J-1000000D01*
G01*
X123867000Y-184500000D01*
G75*
G02*
X122867000Y-185500000I-1000000J0D01*
G01*
X121343000Y-185500000D01*
G75*
G02*
X120343000Y-184500000I0J1000000D01*
G01*
G37*
G36*
G01*
X122883000Y-184500000D02*
X122883000Y-178500000D01*
G75*
G02*
X123883000Y-177500000I1000000J0D01*
G01*
X125407000Y-177500000D01*
G75*
G02*
X126407000Y-178500000I0J-1000000D01*
G01*
X126407000Y-184500000D01*
G75*
G02*
X125407000Y-185500000I-1000000J0D01*
G01*
X123883000Y-185500000D01*
G75*
G02*
X122883000Y-184500000I0J1000000D01*
G01*
G37*
G36*
G01*
X125423000Y-184500000D02*
X125423000Y-178500000D01*
G75*
G02*
X126423000Y-177500000I1000000J0D01*
G01*
X127947000Y-177500000D01*
G75*
G02*
X128947000Y-178500000I0J-1000000D01*
G01*
X128947000Y-184500000D01*
G75*
G02*
X127947000Y-185500000I-1000000J0D01*
G01*
X126423000Y-185500000D01*
G75*
G02*
X125423000Y-184500000I0J1000000D01*
G01*
G37*
G36*
G01*
X127963000Y-184500000D02*
X127963000Y-178500000D01*
G75*
G02*
X128963000Y-177500000I1000000J0D01*
G01*
X130487000Y-177500000D01*
G75*
G02*
X131487000Y-178500000I0J-1000000D01*
G01*
X131487000Y-184500000D01*
G75*
G02*
X130487000Y-185500000I-1000000J0D01*
G01*
X128963000Y-185500000D01*
G75*
G02*
X127963000Y-184500000I0J1000000D01*
G01*
G37*
G36*
G01*
X130503000Y-184500000D02*
X130503000Y-178500000D01*
G75*
G02*
X131503000Y-177500000I1000000J0D01*
G01*
X133027000Y-177500000D01*
G75*
G02*
X134027000Y-178500000I0J-1000000D01*
G01*
X134027000Y-184500000D01*
G75*
G02*
X133027000Y-185500000I-1000000J0D01*
G01*
X131503000Y-185500000D01*
G75*
G02*
X130503000Y-184500000I0J1000000D01*
G01*
G37*
G36*
G01*
X133043000Y-184500000D02*
X133043000Y-178500000D01*
G75*
G02*
X134043000Y-177500000I1000000J0D01*
G01*
X135567000Y-177500000D01*
G75*
G02*
X136567000Y-178500000I0J-1000000D01*
G01*
X136567000Y-184500000D01*
G75*
G02*
X135567000Y-185500000I-1000000J0D01*
G01*
X134043000Y-185500000D01*
G75*
G02*
X133043000Y-184500000I0J1000000D01*
G01*
G37*
G36*
G01*
X135583000Y-184500000D02*
X135583000Y-178500000D01*
G75*
G02*
X136583000Y-177500000I1000000J0D01*
G01*
X138107000Y-177500000D01*
G75*
G02*
X139107000Y-178500000I0J-1000000D01*
G01*
X139107000Y-184500000D01*
G75*
G02*
X138107000Y-185500000I-1000000J0D01*
G01*
X136583000Y-185500000D01*
G75*
G02*
X135583000Y-184500000I0J1000000D01*
G01*
G37*
G36*
G01*
X138123000Y-184500000D02*
X138123000Y-178500000D01*
G75*
G02*
X139123000Y-177500000I1000000J0D01*
G01*
X140647000Y-177500000D01*
G75*
G02*
X141647000Y-178500000I0J-1000000D01*
G01*
X141647000Y-184500000D01*
G75*
G02*
X140647000Y-185500000I-1000000J0D01*
G01*
X139123000Y-185500000D01*
G75*
G02*
X138123000Y-184500000I0J1000000D01*
G01*
G37*
G36*
G01*
X140663000Y-184500000D02*
X140663000Y-178500000D01*
G75*
G02*
X141663000Y-177500000I1000000J0D01*
G01*
X143187000Y-177500000D01*
G75*
G02*
X144187000Y-178500000I0J-1000000D01*
G01*
X144187000Y-184500000D01*
G75*
G02*
X143187000Y-185500000I-1000000J0D01*
G01*
X141663000Y-185500000D01*
G75*
G02*
X140663000Y-184500000I0J1000000D01*
G01*
G37*
G36*
G01*
X143203000Y-184500000D02*
X143203000Y-178500000D01*
G75*
G02*
X144203000Y-177500000I1000000J0D01*
G01*
X145727000Y-177500000D01*
G75*
G02*
X146727000Y-178500000I0J-1000000D01*
G01*
X146727000Y-184500000D01*
G75*
G02*
X145727000Y-185500000I-1000000J0D01*
G01*
X144203000Y-185500000D01*
G75*
G02*
X143203000Y-184500000I0J1000000D01*
G01*
G37*
X140600000Y-149500000D03*
G36*
G01*
X74550000Y-155475000D02*
X74550000Y-154525000D01*
G75*
G02*
X74800000Y-154275000I250000J0D01*
G01*
X75300000Y-154275000D01*
G75*
G02*
X75550000Y-154525000I0J-250000D01*
G01*
X75550000Y-155475000D01*
G75*
G02*
X75300000Y-155725000I-250000J0D01*
G01*
X74800000Y-155725000D01*
G75*
G02*
X74550000Y-155475000I0J250000D01*
G01*
G37*
G36*
G01*
X76450000Y-155475000D02*
X76450000Y-154525000D01*
G75*
G02*
X76700000Y-154275000I250000J0D01*
G01*
X77200000Y-154275000D01*
G75*
G02*
X77450000Y-154525000I0J-250000D01*
G01*
X77450000Y-155475000D01*
G75*
G02*
X77200000Y-155725000I-250000J0D01*
G01*
X76700000Y-155725000D01*
G75*
G02*
X76450000Y-155475000I0J250000D01*
G01*
G37*
G36*
G01*
X135450000Y-155475000D02*
X135450000Y-154525000D01*
G75*
G02*
X135700000Y-154275000I250000J0D01*
G01*
X136200000Y-154275000D01*
G75*
G02*
X136450000Y-154525000I0J-250000D01*
G01*
X136450000Y-155475000D01*
G75*
G02*
X136200000Y-155725000I-250000J0D01*
G01*
X135700000Y-155725000D01*
G75*
G02*
X135450000Y-155475000I0J250000D01*
G01*
G37*
G36*
G01*
X133550000Y-155475000D02*
X133550000Y-154525000D01*
G75*
G02*
X133800000Y-154275000I250000J0D01*
G01*
X134300000Y-154275000D01*
G75*
G02*
X134550000Y-154525000I0J-250000D01*
G01*
X134550000Y-155475000D01*
G75*
G02*
X134300000Y-155725000I-250000J0D01*
G01*
X133800000Y-155725000D01*
G75*
G02*
X133550000Y-155475000I0J250000D01*
G01*
G37*
D14*
X90820000Y-163251000D03*
X120180000Y-163251000D03*
D15*
X147373000Y-184873000D02*
X63827000Y-184873000D01*
X63827000Y-177227000D01*
X147373000Y-177227000D01*
X147373000Y-184873000D01*
D16*
G36*
X147373000Y-184873000D02*
G01*
X63827000Y-184873000D01*
X63827000Y-177227000D01*
X147373000Y-177227000D01*
X147373000Y-184873000D01*
G37*
M02*
