G04 #@! TF.GenerationSoftware,KiCad,Pcbnew,(5.1.10)-1*
G04 #@! TF.CreationDate,2024-02-11T23:09:16+03:00*
G04 #@! TF.ProjectId,4m_cy62167e_x2,346d5f63-7936-4323-9136-37655f78322e,1*
G04 #@! TF.SameCoordinates,Original*
G04 #@! TF.FileFunction,Legend,Top*
G04 #@! TF.FilePolarity,Positive*
%FSLAX46Y46*%
G04 Gerber Fmt 4.6, Leading zero omitted, Abs format (unit mm)*
G04 Created by KiCad (PCBNEW (5.1.10)-1) date 2024-02-11 23:09:16*
%MOMM*%
%LPD*%
G01*
G04 APERTURE LIST*
%ADD10C,0.200000*%
%ADD11C,0.120000*%
%ADD12C,0.100000*%
%ADD13C,0.150000*%
%ADD14C,0.010000*%
G04 APERTURE END LIST*
D10*
X80126342Y-148250161D02*
X80126342Y-146250161D01*
X80126342Y-147012066D02*
X80221580Y-146916828D01*
X80412057Y-146916828D01*
X80507295Y-147012066D01*
X80554914Y-147107304D01*
X80602533Y-147297780D01*
X80602533Y-147869209D01*
X80554914Y-148059685D01*
X80507295Y-148154923D01*
X80412057Y-148250161D01*
X80221580Y-148250161D01*
X80126342Y-148154923D01*
X80935866Y-146916828D02*
X81173961Y-148250161D01*
X81412057Y-146916828D02*
X81173961Y-148250161D01*
X81078723Y-148726352D01*
X81031104Y-148821590D01*
X80935866Y-148916828D01*
X82554914Y-148250161D02*
X82554914Y-146250161D01*
X82888247Y-147678733D01*
X83221580Y-146250161D01*
X83221580Y-148250161D01*
X83697771Y-148250161D02*
X83697771Y-146916828D01*
X83697771Y-146250161D02*
X83650152Y-146345400D01*
X83697771Y-146440638D01*
X83745390Y-146345400D01*
X83697771Y-146250161D01*
X83697771Y-146440638D01*
X84697771Y-146345400D02*
X84602533Y-146250161D01*
X84459676Y-146250161D01*
X84316819Y-146345400D01*
X84221580Y-146535876D01*
X84173961Y-146726352D01*
X84126342Y-147107304D01*
X84126342Y-147393019D01*
X84173961Y-147773971D01*
X84221580Y-147964447D01*
X84316819Y-148154923D01*
X84459676Y-148250161D01*
X84554914Y-148250161D01*
X84697771Y-148154923D01*
X84745390Y-148059685D01*
X84745390Y-147393019D01*
X84554914Y-147393019D01*
X85554914Y-148154923D02*
X85459676Y-148250161D01*
X85269199Y-148250161D01*
X85173961Y-148154923D01*
X85126342Y-147964447D01*
X85126342Y-147202542D01*
X85173961Y-147012066D01*
X85269199Y-146916828D01*
X85459676Y-146916828D01*
X85554914Y-147012066D01*
X85602533Y-147202542D01*
X85602533Y-147393019D01*
X85126342Y-147583495D01*
X86602533Y-148250161D02*
X86269199Y-147297780D01*
X86031104Y-148250161D02*
X86031104Y-146250161D01*
X86412057Y-146250161D01*
X86507295Y-146345400D01*
X86554914Y-146440638D01*
X86602533Y-146631114D01*
X86602533Y-146916828D01*
X86554914Y-147107304D01*
X86507295Y-147202542D01*
X86412057Y-147297780D01*
X86031104Y-147297780D01*
X86983485Y-147678733D02*
X87459676Y-147678733D01*
X86888247Y-148250161D02*
X87221580Y-146250161D01*
X87554914Y-148250161D01*
X95435400Y-140299961D02*
X95435400Y-138299961D01*
X95768733Y-139728533D01*
X96102066Y-138299961D01*
X96102066Y-140299961D01*
X96959209Y-140204723D02*
X96863971Y-140299961D01*
X96673495Y-140299961D01*
X96578257Y-140204723D01*
X96530638Y-140014247D01*
X96530638Y-139252342D01*
X96578257Y-139061866D01*
X96673495Y-138966628D01*
X96863971Y-138966628D01*
X96959209Y-139061866D01*
X97006828Y-139252342D01*
X97006828Y-139442819D01*
X96530638Y-139633295D01*
X97863971Y-138966628D02*
X97863971Y-140585676D01*
X97816352Y-140776152D01*
X97768733Y-140871390D01*
X97673495Y-140966628D01*
X97530638Y-140966628D01*
X97435400Y-140871390D01*
X97863971Y-140204723D02*
X97768733Y-140299961D01*
X97578257Y-140299961D01*
X97483019Y-140204723D01*
X97435400Y-140109485D01*
X97387780Y-139919009D01*
X97387780Y-139347580D01*
X97435400Y-139157104D01*
X97483019Y-139061866D01*
X97578257Y-138966628D01*
X97768733Y-138966628D01*
X97863971Y-139061866D01*
X98768733Y-140299961D02*
X98768733Y-139252342D01*
X98721114Y-139061866D01*
X98625876Y-138966628D01*
X98435400Y-138966628D01*
X98340161Y-139061866D01*
X98768733Y-140204723D02*
X98673495Y-140299961D01*
X98435400Y-140299961D01*
X98340161Y-140204723D01*
X98292542Y-140014247D01*
X98292542Y-139823771D01*
X98340161Y-139633295D01*
X98435400Y-139538057D01*
X98673495Y-139538057D01*
X98768733Y-139442819D01*
X100578257Y-140299961D02*
X100244923Y-139347580D01*
X100006828Y-140299961D02*
X100006828Y-138299961D01*
X100387780Y-138299961D01*
X100483019Y-138395200D01*
X100530638Y-138490438D01*
X100578257Y-138680914D01*
X100578257Y-138966628D01*
X100530638Y-139157104D01*
X100483019Y-139252342D01*
X100387780Y-139347580D01*
X100006828Y-139347580D01*
X100959209Y-139728533D02*
X101435400Y-139728533D01*
X100863971Y-140299961D02*
X101197304Y-138299961D01*
X101530638Y-140299961D01*
X101863971Y-140299961D02*
X101863971Y-138299961D01*
X102197304Y-139728533D01*
X102530638Y-138299961D01*
X102530638Y-140299961D01*
X103006828Y-139538057D02*
X103768733Y-139538057D01*
X104816352Y-140109485D02*
X104768733Y-140204723D01*
X104625876Y-140299961D01*
X104530638Y-140299961D01*
X104387780Y-140204723D01*
X104292542Y-140014247D01*
X104244923Y-139823771D01*
X104197304Y-139442819D01*
X104197304Y-139157104D01*
X104244923Y-138776152D01*
X104292542Y-138585676D01*
X104387780Y-138395200D01*
X104530638Y-138299961D01*
X104625876Y-138299961D01*
X104768733Y-138395200D01*
X104816352Y-138490438D01*
X105673495Y-140299961D02*
X105673495Y-139252342D01*
X105625876Y-139061866D01*
X105530638Y-138966628D01*
X105340161Y-138966628D01*
X105244923Y-139061866D01*
X105673495Y-140204723D02*
X105578257Y-140299961D01*
X105340161Y-140299961D01*
X105244923Y-140204723D01*
X105197304Y-140014247D01*
X105197304Y-139823771D01*
X105244923Y-139633295D01*
X105340161Y-139538057D01*
X105578257Y-139538057D01*
X105673495Y-139442819D01*
X106149685Y-140299961D02*
X106149685Y-138966628D01*
X106149685Y-139347580D02*
X106197304Y-139157104D01*
X106244923Y-139061866D01*
X106340161Y-138966628D01*
X106435400Y-138966628D01*
X106625876Y-138966628D02*
X107006828Y-138966628D01*
X106768733Y-138299961D02*
X106768733Y-140014247D01*
X106816352Y-140204723D01*
X106911590Y-140299961D01*
X107006828Y-140299961D01*
X108530638Y-138966628D02*
X108530638Y-140299961D01*
X108292542Y-138204723D02*
X108054447Y-139633295D01*
X108673495Y-139633295D01*
X109054447Y-140299961D02*
X109054447Y-138299961D01*
X109387780Y-139728533D01*
X109721114Y-138299961D01*
X109721114Y-140299961D01*
X110530638Y-139252342D02*
X110673495Y-139347580D01*
X110721114Y-139442819D01*
X110768733Y-139633295D01*
X110768733Y-139919009D01*
X110721114Y-140109485D01*
X110673495Y-140204723D01*
X110578257Y-140299961D01*
X110197304Y-140299961D01*
X110197304Y-138299961D01*
X110530638Y-138299961D01*
X110625876Y-138395200D01*
X110673495Y-138490438D01*
X110721114Y-138680914D01*
X110721114Y-138871390D01*
X110673495Y-139061866D01*
X110625876Y-139157104D01*
X110530638Y-139252342D01*
X110197304Y-139252342D01*
X111911590Y-140204723D02*
X112054447Y-140299961D01*
X112292542Y-140299961D01*
X112387780Y-140204723D01*
X112435400Y-140109485D01*
X112483019Y-139919009D01*
X112483019Y-139728533D01*
X112435400Y-139538057D01*
X112387780Y-139442819D01*
X112292542Y-139347580D01*
X112102066Y-139252342D01*
X112006828Y-139157104D01*
X111959209Y-139061866D01*
X111911590Y-138871390D01*
X111911590Y-138680914D01*
X111959209Y-138490438D01*
X112006828Y-138395200D01*
X112102066Y-138299961D01*
X112340161Y-138299961D01*
X112483019Y-138395200D01*
X113483019Y-140299961D02*
X113149685Y-139347580D01*
X112911590Y-140299961D02*
X112911590Y-138299961D01*
X113292542Y-138299961D01*
X113387780Y-138395200D01*
X113435400Y-138490438D01*
X113483019Y-138680914D01*
X113483019Y-138966628D01*
X113435400Y-139157104D01*
X113387780Y-139252342D01*
X113292542Y-139347580D01*
X112911590Y-139347580D01*
X113863971Y-139728533D02*
X114340161Y-139728533D01*
X113768733Y-140299961D02*
X114102066Y-138299961D01*
X114435400Y-140299961D01*
X114768733Y-140299961D02*
X114768733Y-138299961D01*
X115102066Y-139728533D01*
X115435400Y-138299961D01*
X115435400Y-140299961D01*
D11*
X94000000Y-143865000D02*
X90550000Y-143865000D01*
X94000000Y-143865000D02*
X95950000Y-143865000D01*
X94000000Y-149135000D02*
X92050000Y-149135000D01*
X94000000Y-149135000D02*
X95950000Y-149135000D01*
X116500000Y-143865000D02*
X113050000Y-143865000D01*
X116500000Y-143865000D02*
X118450000Y-143865000D01*
X116500000Y-149135000D02*
X114550000Y-149135000D01*
X116500000Y-149135000D02*
X118450000Y-149135000D01*
X128772936Y-155735000D02*
X129227064Y-155735000D01*
X128772936Y-154265000D02*
X129227064Y-154265000D01*
X110140000Y-149969000D02*
X100240000Y-149969000D01*
X110140000Y-142589000D02*
X100240000Y-142589000D01*
X110140000Y-149969000D02*
X110140000Y-142589000D01*
X100240000Y-149969000D02*
X100240000Y-142589000D01*
X110380000Y-150209000D02*
X108996000Y-150209000D01*
X110380000Y-150209000D02*
X110380000Y-148826000D01*
X107220000Y-148184000D02*
X107220000Y-146914000D01*
X107220000Y-146914000D02*
X103160000Y-146914000D01*
X103160000Y-146914000D02*
X103160000Y-148184000D01*
X103160000Y-148184000D02*
X107220000Y-148184000D01*
X107220000Y-148064000D02*
X105866667Y-148064000D01*
X107220000Y-147944000D02*
X105866667Y-147944000D01*
X107220000Y-147824000D02*
X105866667Y-147824000D01*
X107220000Y-147704000D02*
X105866667Y-147704000D01*
X107220000Y-147584000D02*
X105866667Y-147584000D01*
X107220000Y-147464000D02*
X105866667Y-147464000D01*
X107220000Y-147344000D02*
X105866667Y-147344000D01*
X107220000Y-147224000D02*
X105866667Y-147224000D01*
X107220000Y-147104000D02*
X105866667Y-147104000D01*
X107220000Y-146984000D02*
X105866667Y-146984000D01*
X105866667Y-148184000D02*
X105866667Y-146914000D01*
X107220000Y-145644000D02*
X107220000Y-144374000D01*
X107220000Y-144374000D02*
X103160000Y-144374000D01*
X103160000Y-144374000D02*
X103160000Y-145644000D01*
X103160000Y-145644000D02*
X107220000Y-145644000D01*
X107220000Y-145524000D02*
X105866667Y-145524000D01*
X107220000Y-145404000D02*
X105866667Y-145404000D01*
X107220000Y-145284000D02*
X105866667Y-145284000D01*
X107220000Y-145164000D02*
X105866667Y-145164000D01*
X107220000Y-145044000D02*
X105866667Y-145044000D01*
X107220000Y-144924000D02*
X105866667Y-144924000D01*
X107220000Y-144804000D02*
X105866667Y-144804000D01*
X107220000Y-144684000D02*
X105866667Y-144684000D01*
X107220000Y-144564000D02*
X105866667Y-144564000D01*
X107220000Y-144444000D02*
X105866667Y-144444000D01*
X105866667Y-145644000D02*
X105866667Y-144374000D01*
D12*
X85200000Y-156880000D02*
X65800000Y-156880000D01*
D11*
X66800000Y-169120000D02*
X85200000Y-169120000D01*
D13*
X68123607Y-157400000D02*
G75*
G03*
X68123607Y-157400000I-223607J0D01*
G01*
D12*
X144200000Y-156880000D02*
X124800000Y-156880000D01*
D11*
X125800000Y-169120000D02*
X144200000Y-169120000D01*
D13*
X127123607Y-157400000D02*
G75*
G03*
X127123607Y-157400000I-223607J0D01*
G01*
D11*
X72886000Y-149500000D02*
G75*
G03*
X72886000Y-149500000I-2286000J0D01*
G01*
D14*
G36*
X80207886Y-143897505D02*
G01*
X80282539Y-143934727D01*
X80348431Y-144003261D01*
X80366577Y-144028648D01*
X80386345Y-144061866D01*
X80399172Y-144097945D01*
X80406510Y-144146098D01*
X80409813Y-144215536D01*
X80410538Y-144307206D01*
X80407263Y-144432830D01*
X80395877Y-144527154D01*
X80374041Y-144597523D01*
X80339419Y-144651286D01*
X80289670Y-144695788D01*
X80286014Y-144698423D01*
X80236985Y-144725377D01*
X80177945Y-144738712D01*
X80102859Y-144742000D01*
X79980795Y-144742000D01*
X79980744Y-144860497D01*
X79979608Y-144926492D01*
X79972686Y-144965202D01*
X79954598Y-144988419D01*
X79919962Y-145007933D01*
X79911645Y-145011920D01*
X79872720Y-145030603D01*
X79842583Y-145042403D01*
X79820174Y-145043422D01*
X79804433Y-145029761D01*
X79794302Y-144997522D01*
X79788723Y-144942804D01*
X79786635Y-144861711D01*
X79786981Y-144750344D01*
X79788700Y-144604802D01*
X79789237Y-144561269D01*
X79791172Y-144411205D01*
X79792904Y-144313042D01*
X79980692Y-144313042D01*
X79981748Y-144396364D01*
X79986438Y-144450880D01*
X79997051Y-144486837D01*
X80015872Y-144514482D01*
X80028650Y-144527965D01*
X80080890Y-144567417D01*
X80127142Y-144570628D01*
X80174867Y-144538049D01*
X80176077Y-144536846D01*
X80195494Y-144511668D01*
X80207307Y-144477447D01*
X80213265Y-144424748D01*
X80215120Y-144344131D01*
X80215154Y-144326271D01*
X80210670Y-144215175D01*
X80196074Y-144138161D01*
X80169650Y-144091147D01*
X80129683Y-144070050D01*
X80106584Y-144067923D01*
X80051762Y-144077900D01*
X80014158Y-144110752D01*
X79991523Y-144170857D01*
X79981606Y-144262598D01*
X79980692Y-144313042D01*
X79792904Y-144313042D01*
X79793222Y-144295060D01*
X79795873Y-144207679D01*
X79799606Y-144143905D01*
X79804907Y-144098582D01*
X79812258Y-144066555D01*
X79822143Y-144042668D01*
X79835046Y-144021764D01*
X79840579Y-144013898D01*
X79913969Y-143939595D01*
X80006760Y-143897467D01*
X80114096Y-143885722D01*
X80207886Y-143897505D01*
G37*
X80207886Y-143897505D02*
X80282539Y-143934727D01*
X80348431Y-144003261D01*
X80366577Y-144028648D01*
X80386345Y-144061866D01*
X80399172Y-144097945D01*
X80406510Y-144146098D01*
X80409813Y-144215536D01*
X80410538Y-144307206D01*
X80407263Y-144432830D01*
X80395877Y-144527154D01*
X80374041Y-144597523D01*
X80339419Y-144651286D01*
X80289670Y-144695788D01*
X80286014Y-144698423D01*
X80236985Y-144725377D01*
X80177945Y-144738712D01*
X80102859Y-144742000D01*
X79980795Y-144742000D01*
X79980744Y-144860497D01*
X79979608Y-144926492D01*
X79972686Y-144965202D01*
X79954598Y-144988419D01*
X79919962Y-145007933D01*
X79911645Y-145011920D01*
X79872720Y-145030603D01*
X79842583Y-145042403D01*
X79820174Y-145043422D01*
X79804433Y-145029761D01*
X79794302Y-144997522D01*
X79788723Y-144942804D01*
X79786635Y-144861711D01*
X79786981Y-144750344D01*
X79788700Y-144604802D01*
X79789237Y-144561269D01*
X79791172Y-144411205D01*
X79792904Y-144313042D01*
X79980692Y-144313042D01*
X79981748Y-144396364D01*
X79986438Y-144450880D01*
X79997051Y-144486837D01*
X80015872Y-144514482D01*
X80028650Y-144527965D01*
X80080890Y-144567417D01*
X80127142Y-144570628D01*
X80174867Y-144538049D01*
X80176077Y-144536846D01*
X80195494Y-144511668D01*
X80207307Y-144477447D01*
X80213265Y-144424748D01*
X80215120Y-144344131D01*
X80215154Y-144326271D01*
X80210670Y-144215175D01*
X80196074Y-144138161D01*
X80169650Y-144091147D01*
X80129683Y-144070050D01*
X80106584Y-144067923D01*
X80051762Y-144077900D01*
X80014158Y-144110752D01*
X79991523Y-144170857D01*
X79981606Y-144262598D01*
X79980692Y-144313042D01*
X79792904Y-144313042D01*
X79793222Y-144295060D01*
X79795873Y-144207679D01*
X79799606Y-144143905D01*
X79804907Y-144098582D01*
X79812258Y-144066555D01*
X79822143Y-144042668D01*
X79835046Y-144021764D01*
X79840579Y-144013898D01*
X79913969Y-143939595D01*
X80006760Y-143897467D01*
X80114096Y-143885722D01*
X80207886Y-143897505D01*
G36*
X81710664Y-143908089D02*
G01*
X81773367Y-143944358D01*
X81816961Y-143980358D01*
X81848845Y-144018075D01*
X81870810Y-144064199D01*
X81884649Y-144125421D01*
X81892153Y-144208431D01*
X81895117Y-144319919D01*
X81895461Y-144400062D01*
X81895461Y-144695065D01*
X81729385Y-144769515D01*
X81719615Y-144446402D01*
X81715579Y-144325729D01*
X81711344Y-144238141D01*
X81706097Y-144177650D01*
X81699025Y-144138268D01*
X81689311Y-144114007D01*
X81676144Y-144098880D01*
X81671919Y-144095606D01*
X81607909Y-144070034D01*
X81543208Y-144080153D01*
X81504692Y-144107000D01*
X81489025Y-144126024D01*
X81478180Y-144150988D01*
X81471288Y-144188834D01*
X81467479Y-144246502D01*
X81465883Y-144330935D01*
X81465615Y-144418928D01*
X81465563Y-144529323D01*
X81463672Y-144607463D01*
X81457345Y-144660165D01*
X81443983Y-144694242D01*
X81420985Y-144716511D01*
X81385754Y-144733787D01*
X81338697Y-144751738D01*
X81287303Y-144771278D01*
X81293421Y-144424485D01*
X81295884Y-144299468D01*
X81298767Y-144207082D01*
X81302898Y-144140881D01*
X81309107Y-144094420D01*
X81318226Y-144061256D01*
X81331083Y-144034944D01*
X81346584Y-144011729D01*
X81421371Y-143937569D01*
X81512628Y-143894684D01*
X81611883Y-143884412D01*
X81710664Y-143908089D01*
G37*
X81710664Y-143908089D02*
X81773367Y-143944358D01*
X81816961Y-143980358D01*
X81848845Y-144018075D01*
X81870810Y-144064199D01*
X81884649Y-144125421D01*
X81892153Y-144208431D01*
X81895117Y-144319919D01*
X81895461Y-144400062D01*
X81895461Y-144695065D01*
X81729385Y-144769515D01*
X81719615Y-144446402D01*
X81715579Y-144325729D01*
X81711344Y-144238141D01*
X81706097Y-144177650D01*
X81699025Y-144138268D01*
X81689311Y-144114007D01*
X81676144Y-144098880D01*
X81671919Y-144095606D01*
X81607909Y-144070034D01*
X81543208Y-144080153D01*
X81504692Y-144107000D01*
X81489025Y-144126024D01*
X81478180Y-144150988D01*
X81471288Y-144188834D01*
X81467479Y-144246502D01*
X81465883Y-144330935D01*
X81465615Y-144418928D01*
X81465563Y-144529323D01*
X81463672Y-144607463D01*
X81457345Y-144660165D01*
X81443983Y-144694242D01*
X81420985Y-144716511D01*
X81385754Y-144733787D01*
X81338697Y-144751738D01*
X81287303Y-144771278D01*
X81293421Y-144424485D01*
X81295884Y-144299468D01*
X81298767Y-144207082D01*
X81302898Y-144140881D01*
X81309107Y-144094420D01*
X81318226Y-144061256D01*
X81331083Y-144034944D01*
X81346584Y-144011729D01*
X81421371Y-143937569D01*
X81512628Y-143894684D01*
X81611883Y-143884412D01*
X81710664Y-143908089D01*
G36*
X79455886Y-143900256D02*
G01*
X79547464Y-143948409D01*
X79615049Y-144025905D01*
X79639057Y-144075727D01*
X79657738Y-144150533D01*
X79667301Y-144245052D01*
X79668208Y-144348210D01*
X79660921Y-144448935D01*
X79645903Y-144536153D01*
X79623615Y-144598791D01*
X79616765Y-144609579D01*
X79535632Y-144690105D01*
X79439266Y-144738336D01*
X79334701Y-144752450D01*
X79228968Y-144730629D01*
X79199543Y-144717547D01*
X79142241Y-144677231D01*
X79091950Y-144623775D01*
X79087197Y-144616995D01*
X79067878Y-144584321D01*
X79055108Y-144549394D01*
X79047564Y-144503414D01*
X79043924Y-144437584D01*
X79042865Y-144343105D01*
X79042846Y-144321923D01*
X79042894Y-144315182D01*
X79238231Y-144315182D01*
X79239368Y-144404349D01*
X79243841Y-144463520D01*
X79253246Y-144501741D01*
X79269176Y-144528053D01*
X79277308Y-144536846D01*
X79324058Y-144570261D01*
X79369447Y-144568737D01*
X79415340Y-144539752D01*
X79442712Y-144508809D01*
X79458923Y-144463643D01*
X79468026Y-144392420D01*
X79468651Y-144384114D01*
X79470204Y-144255037D01*
X79453965Y-144159172D01*
X79420152Y-144097107D01*
X79368984Y-144069432D01*
X79350720Y-144067923D01*
X79302760Y-144075513D01*
X79269953Y-144101808D01*
X79249895Y-144152095D01*
X79240178Y-144231664D01*
X79238231Y-144315182D01*
X79042894Y-144315182D01*
X79043574Y-144221249D01*
X79046629Y-144150906D01*
X79053322Y-144102163D01*
X79064960Y-144066288D01*
X79082853Y-144034548D01*
X79086808Y-144028648D01*
X79153267Y-143949104D01*
X79225685Y-143902929D01*
X79313849Y-143884599D01*
X79343787Y-143883703D01*
X79455886Y-143900256D01*
G37*
X79455886Y-143900256D02*
X79547464Y-143948409D01*
X79615049Y-144025905D01*
X79639057Y-144075727D01*
X79657738Y-144150533D01*
X79667301Y-144245052D01*
X79668208Y-144348210D01*
X79660921Y-144448935D01*
X79645903Y-144536153D01*
X79623615Y-144598791D01*
X79616765Y-144609579D01*
X79535632Y-144690105D01*
X79439266Y-144738336D01*
X79334701Y-144752450D01*
X79228968Y-144730629D01*
X79199543Y-144717547D01*
X79142241Y-144677231D01*
X79091950Y-144623775D01*
X79087197Y-144616995D01*
X79067878Y-144584321D01*
X79055108Y-144549394D01*
X79047564Y-144503414D01*
X79043924Y-144437584D01*
X79042865Y-144343105D01*
X79042846Y-144321923D01*
X79042894Y-144315182D01*
X79238231Y-144315182D01*
X79239368Y-144404349D01*
X79243841Y-144463520D01*
X79253246Y-144501741D01*
X79269176Y-144528053D01*
X79277308Y-144536846D01*
X79324058Y-144570261D01*
X79369447Y-144568737D01*
X79415340Y-144539752D01*
X79442712Y-144508809D01*
X79458923Y-144463643D01*
X79468026Y-144392420D01*
X79468651Y-144384114D01*
X79470204Y-144255037D01*
X79453965Y-144159172D01*
X79420152Y-144097107D01*
X79368984Y-144069432D01*
X79350720Y-144067923D01*
X79302760Y-144075513D01*
X79269953Y-144101808D01*
X79249895Y-144152095D01*
X79240178Y-144231664D01*
X79238231Y-144315182D01*
X79042894Y-144315182D01*
X79043574Y-144221249D01*
X79046629Y-144150906D01*
X79053322Y-144102163D01*
X79064960Y-144066288D01*
X79082853Y-144034548D01*
X79086808Y-144028648D01*
X79153267Y-143949104D01*
X79225685Y-143902929D01*
X79313849Y-143884599D01*
X79343787Y-143883703D01*
X79455886Y-143900256D01*
G36*
X80973254Y-143912745D02*
G01*
X81050286Y-143964567D01*
X81109816Y-144039412D01*
X81145378Y-144134654D01*
X81152571Y-144204756D01*
X81151754Y-144234009D01*
X81144914Y-144256407D01*
X81126112Y-144276474D01*
X81089408Y-144298733D01*
X81028862Y-144327709D01*
X80938534Y-144367927D01*
X80938077Y-144368129D01*
X80854933Y-144406210D01*
X80786753Y-144440025D01*
X80740505Y-144465933D01*
X80723158Y-144480295D01*
X80723154Y-144480411D01*
X80738443Y-144511685D01*
X80774196Y-144546157D01*
X80815242Y-144570990D01*
X80836037Y-144575923D01*
X80892770Y-144558862D01*
X80941627Y-144516133D01*
X80965465Y-144469155D01*
X80988397Y-144434522D01*
X81033318Y-144395081D01*
X81086123Y-144361009D01*
X81132710Y-144342480D01*
X81142452Y-144341462D01*
X81153418Y-144358215D01*
X81154079Y-144401039D01*
X81146020Y-144458781D01*
X81130827Y-144520289D01*
X81110086Y-144574409D01*
X81109038Y-144576510D01*
X81046621Y-144663660D01*
X80965726Y-144722939D01*
X80873856Y-144752034D01*
X80778513Y-144748634D01*
X80687198Y-144710428D01*
X80683138Y-144707741D01*
X80611306Y-144642642D01*
X80564073Y-144557705D01*
X80537934Y-144446021D01*
X80534426Y-144414643D01*
X80528213Y-144266536D01*
X80535661Y-144197468D01*
X80723154Y-144197468D01*
X80725590Y-144240552D01*
X80738914Y-144253126D01*
X80772132Y-144243719D01*
X80824494Y-144221483D01*
X80883024Y-144193610D01*
X80884479Y-144192872D01*
X80934089Y-144166777D01*
X80954000Y-144149363D01*
X80949090Y-144131107D01*
X80928416Y-144107120D01*
X80875819Y-144072406D01*
X80819177Y-144069856D01*
X80768369Y-144095119D01*
X80733276Y-144143847D01*
X80723154Y-144197468D01*
X80535661Y-144197468D01*
X80540992Y-144148036D01*
X80573778Y-144054055D01*
X80619421Y-143988215D01*
X80701802Y-143921681D01*
X80792546Y-143888676D01*
X80885185Y-143886573D01*
X80973254Y-143912745D01*
G37*
X80973254Y-143912745D02*
X81050286Y-143964567D01*
X81109816Y-144039412D01*
X81145378Y-144134654D01*
X81152571Y-144204756D01*
X81151754Y-144234009D01*
X81144914Y-144256407D01*
X81126112Y-144276474D01*
X81089408Y-144298733D01*
X81028862Y-144327709D01*
X80938534Y-144367927D01*
X80938077Y-144368129D01*
X80854933Y-144406210D01*
X80786753Y-144440025D01*
X80740505Y-144465933D01*
X80723158Y-144480295D01*
X80723154Y-144480411D01*
X80738443Y-144511685D01*
X80774196Y-144546157D01*
X80815242Y-144570990D01*
X80836037Y-144575923D01*
X80892770Y-144558862D01*
X80941627Y-144516133D01*
X80965465Y-144469155D01*
X80988397Y-144434522D01*
X81033318Y-144395081D01*
X81086123Y-144361009D01*
X81132710Y-144342480D01*
X81142452Y-144341462D01*
X81153418Y-144358215D01*
X81154079Y-144401039D01*
X81146020Y-144458781D01*
X81130827Y-144520289D01*
X81110086Y-144574409D01*
X81109038Y-144576510D01*
X81046621Y-144663660D01*
X80965726Y-144722939D01*
X80873856Y-144752034D01*
X80778513Y-144748634D01*
X80687198Y-144710428D01*
X80683138Y-144707741D01*
X80611306Y-144642642D01*
X80564073Y-144557705D01*
X80537934Y-144446021D01*
X80534426Y-144414643D01*
X80528213Y-144266536D01*
X80535661Y-144197468D01*
X80723154Y-144197468D01*
X80725590Y-144240552D01*
X80738914Y-144253126D01*
X80772132Y-144243719D01*
X80824494Y-144221483D01*
X80883024Y-144193610D01*
X80884479Y-144192872D01*
X80934089Y-144166777D01*
X80954000Y-144149363D01*
X80949090Y-144131107D01*
X80928416Y-144107120D01*
X80875819Y-144072406D01*
X80819177Y-144069856D01*
X80768369Y-144095119D01*
X80733276Y-144143847D01*
X80723154Y-144197468D01*
X80535661Y-144197468D01*
X80540992Y-144148036D01*
X80573778Y-144054055D01*
X80619421Y-143988215D01*
X80701802Y-143921681D01*
X80792546Y-143888676D01*
X80885185Y-143886573D01*
X80973254Y-143912745D01*
G36*
X82598846Y-143805120D02*
G01*
X82604572Y-143884980D01*
X82611149Y-143932039D01*
X82620262Y-143952566D01*
X82633598Y-143952829D01*
X82637923Y-143950378D01*
X82695444Y-143932636D01*
X82770268Y-143933672D01*
X82846339Y-143951910D01*
X82893918Y-143975505D01*
X82942702Y-144013198D01*
X82978364Y-144055855D01*
X83002845Y-144110057D01*
X83018087Y-144182384D01*
X83026030Y-144279419D01*
X83028616Y-144407742D01*
X83028662Y-144432358D01*
X83028692Y-144708870D01*
X82967161Y-144730320D01*
X82923459Y-144744912D01*
X82899482Y-144751706D01*
X82898777Y-144751769D01*
X82896415Y-144733345D01*
X82894406Y-144682526D01*
X82892901Y-144605993D01*
X82892053Y-144510430D01*
X82891923Y-144452329D01*
X82891651Y-144337771D01*
X82890252Y-144255667D01*
X82886849Y-144199393D01*
X82880567Y-144162326D01*
X82870529Y-144137844D01*
X82855861Y-144119325D01*
X82846702Y-144110406D01*
X82783789Y-144074466D01*
X82715136Y-144071775D01*
X82652848Y-144102170D01*
X82641329Y-144113144D01*
X82624433Y-144133779D01*
X82612714Y-144158256D01*
X82605233Y-144193647D01*
X82601054Y-144247026D01*
X82599237Y-144325466D01*
X82598846Y-144433617D01*
X82598846Y-144708870D01*
X82537315Y-144730320D01*
X82493613Y-144744912D01*
X82469636Y-144751706D01*
X82468930Y-144751769D01*
X82467126Y-144733069D01*
X82465500Y-144680322D01*
X82464117Y-144598557D01*
X82463042Y-144492805D01*
X82462340Y-144368094D01*
X82462077Y-144229455D01*
X82462077Y-143694806D01*
X82589077Y-143641236D01*
X82598846Y-143805120D01*
G37*
X82598846Y-143805120D02*
X82604572Y-143884980D01*
X82611149Y-143932039D01*
X82620262Y-143952566D01*
X82633598Y-143952829D01*
X82637923Y-143950378D01*
X82695444Y-143932636D01*
X82770268Y-143933672D01*
X82846339Y-143951910D01*
X82893918Y-143975505D01*
X82942702Y-144013198D01*
X82978364Y-144055855D01*
X83002845Y-144110057D01*
X83018087Y-144182384D01*
X83026030Y-144279419D01*
X83028616Y-144407742D01*
X83028662Y-144432358D01*
X83028692Y-144708870D01*
X82967161Y-144730320D01*
X82923459Y-144744912D01*
X82899482Y-144751706D01*
X82898777Y-144751769D01*
X82896415Y-144733345D01*
X82894406Y-144682526D01*
X82892901Y-144605993D01*
X82892053Y-144510430D01*
X82891923Y-144452329D01*
X82891651Y-144337771D01*
X82890252Y-144255667D01*
X82886849Y-144199393D01*
X82880567Y-144162326D01*
X82870529Y-144137844D01*
X82855861Y-144119325D01*
X82846702Y-144110406D01*
X82783789Y-144074466D01*
X82715136Y-144071775D01*
X82652848Y-144102170D01*
X82641329Y-144113144D01*
X82624433Y-144133779D01*
X82612714Y-144158256D01*
X82605233Y-144193647D01*
X82601054Y-144247026D01*
X82599237Y-144325466D01*
X82598846Y-144433617D01*
X82598846Y-144708870D01*
X82537315Y-144730320D01*
X82493613Y-144744912D01*
X82469636Y-144751706D01*
X82468930Y-144751769D01*
X82467126Y-144733069D01*
X82465500Y-144680322D01*
X82464117Y-144598557D01*
X82463042Y-144492805D01*
X82462340Y-144368094D01*
X82462077Y-144229455D01*
X82462077Y-143694806D01*
X82589077Y-143641236D01*
X82598846Y-143805120D01*
G36*
X83492501Y-143939303D02*
G01*
X83569060Y-143967733D01*
X83569936Y-143968279D01*
X83617285Y-144003127D01*
X83652241Y-144043852D01*
X83676825Y-144096925D01*
X83693062Y-144168814D01*
X83702975Y-144265992D01*
X83708586Y-144394928D01*
X83709077Y-144413298D01*
X83716141Y-144690287D01*
X83656695Y-144721028D01*
X83613681Y-144741802D01*
X83587710Y-144751646D01*
X83586509Y-144751769D01*
X83582014Y-144733606D01*
X83578444Y-144684612D01*
X83576248Y-144613031D01*
X83575769Y-144555068D01*
X83575758Y-144461170D01*
X83571466Y-144402203D01*
X83556503Y-144374079D01*
X83524482Y-144372706D01*
X83469014Y-144393998D01*
X83385269Y-144433136D01*
X83323689Y-144465643D01*
X83292017Y-144493845D01*
X83282706Y-144524582D01*
X83282692Y-144526104D01*
X83298057Y-144579054D01*
X83343547Y-144607660D01*
X83413166Y-144611803D01*
X83463313Y-144611084D01*
X83489754Y-144625527D01*
X83506243Y-144660218D01*
X83515733Y-144704416D01*
X83502057Y-144729493D01*
X83496907Y-144733082D01*
X83448425Y-144747496D01*
X83380531Y-144749537D01*
X83310612Y-144739983D01*
X83261068Y-144722522D01*
X83192570Y-144664364D01*
X83153634Y-144583408D01*
X83145923Y-144520160D01*
X83151807Y-144463111D01*
X83173101Y-144416542D01*
X83215265Y-144375181D01*
X83283759Y-144333755D01*
X83384044Y-144286993D01*
X83390154Y-144284350D01*
X83480490Y-144242617D01*
X83536235Y-144208391D01*
X83560129Y-144177635D01*
X83554913Y-144146311D01*
X83523328Y-144110383D01*
X83513883Y-144102116D01*
X83450617Y-144070058D01*
X83385064Y-144071407D01*
X83327972Y-144102838D01*
X83290093Y-144161024D01*
X83286574Y-144172446D01*
X83252300Y-144227837D01*
X83208809Y-144254518D01*
X83145923Y-144280960D01*
X83145923Y-144212548D01*
X83165052Y-144113110D01*
X83221831Y-144021902D01*
X83251378Y-143991389D01*
X83318542Y-143952228D01*
X83403956Y-143934500D01*
X83492501Y-143939303D01*
G37*
X83492501Y-143939303D02*
X83569060Y-143967733D01*
X83569936Y-143968279D01*
X83617285Y-144003127D01*
X83652241Y-144043852D01*
X83676825Y-144096925D01*
X83693062Y-144168814D01*
X83702975Y-144265992D01*
X83708586Y-144394928D01*
X83709077Y-144413298D01*
X83716141Y-144690287D01*
X83656695Y-144721028D01*
X83613681Y-144741802D01*
X83587710Y-144751646D01*
X83586509Y-144751769D01*
X83582014Y-144733606D01*
X83578444Y-144684612D01*
X83576248Y-144613031D01*
X83575769Y-144555068D01*
X83575758Y-144461170D01*
X83571466Y-144402203D01*
X83556503Y-144374079D01*
X83524482Y-144372706D01*
X83469014Y-144393998D01*
X83385269Y-144433136D01*
X83323689Y-144465643D01*
X83292017Y-144493845D01*
X83282706Y-144524582D01*
X83282692Y-144526104D01*
X83298057Y-144579054D01*
X83343547Y-144607660D01*
X83413166Y-144611803D01*
X83463313Y-144611084D01*
X83489754Y-144625527D01*
X83506243Y-144660218D01*
X83515733Y-144704416D01*
X83502057Y-144729493D01*
X83496907Y-144733082D01*
X83448425Y-144747496D01*
X83380531Y-144749537D01*
X83310612Y-144739983D01*
X83261068Y-144722522D01*
X83192570Y-144664364D01*
X83153634Y-144583408D01*
X83145923Y-144520160D01*
X83151807Y-144463111D01*
X83173101Y-144416542D01*
X83215265Y-144375181D01*
X83283759Y-144333755D01*
X83384044Y-144286993D01*
X83390154Y-144284350D01*
X83480490Y-144242617D01*
X83536235Y-144208391D01*
X83560129Y-144177635D01*
X83554913Y-144146311D01*
X83523328Y-144110383D01*
X83513883Y-144102116D01*
X83450617Y-144070058D01*
X83385064Y-144071407D01*
X83327972Y-144102838D01*
X83290093Y-144161024D01*
X83286574Y-144172446D01*
X83252300Y-144227837D01*
X83208809Y-144254518D01*
X83145923Y-144280960D01*
X83145923Y-144212548D01*
X83165052Y-144113110D01*
X83221831Y-144021902D01*
X83251378Y-143991389D01*
X83318542Y-143952228D01*
X83403956Y-143934500D01*
X83492501Y-143939303D01*
G36*
X84152362Y-143937670D02*
G01*
X84241117Y-143970421D01*
X84313022Y-144028350D01*
X84341144Y-144069128D01*
X84371802Y-144143954D01*
X84371165Y-144198058D01*
X84338987Y-144234446D01*
X84327081Y-144240633D01*
X84275675Y-144259925D01*
X84249422Y-144254982D01*
X84240530Y-144222587D01*
X84240077Y-144204692D01*
X84223797Y-144138859D01*
X84181365Y-144092807D01*
X84122388Y-144070564D01*
X84056475Y-144076161D01*
X84002895Y-144105229D01*
X83984798Y-144121810D01*
X83971971Y-144141925D01*
X83963306Y-144172332D01*
X83957696Y-144219788D01*
X83954035Y-144291050D01*
X83951215Y-144392875D01*
X83950484Y-144425115D01*
X83947820Y-144535410D01*
X83944792Y-144613036D01*
X83940250Y-144664396D01*
X83933046Y-144695890D01*
X83922033Y-144713920D01*
X83906060Y-144724888D01*
X83895834Y-144729733D01*
X83852406Y-144746301D01*
X83826842Y-144751769D01*
X83818395Y-144733507D01*
X83813239Y-144678296D01*
X83811346Y-144585499D01*
X83812689Y-144454478D01*
X83813107Y-144434269D01*
X83816058Y-144314733D01*
X83819548Y-144227449D01*
X83824514Y-144165591D01*
X83831893Y-144122336D01*
X83842624Y-144090860D01*
X83857645Y-144064339D01*
X83865502Y-144052975D01*
X83910553Y-144002692D01*
X83960940Y-143963581D01*
X83967108Y-143960167D01*
X84057458Y-143933212D01*
X84152362Y-143937670D01*
G37*
X84152362Y-143937670D02*
X84241117Y-143970421D01*
X84313022Y-144028350D01*
X84341144Y-144069128D01*
X84371802Y-144143954D01*
X84371165Y-144198058D01*
X84338987Y-144234446D01*
X84327081Y-144240633D01*
X84275675Y-144259925D01*
X84249422Y-144254982D01*
X84240530Y-144222587D01*
X84240077Y-144204692D01*
X84223797Y-144138859D01*
X84181365Y-144092807D01*
X84122388Y-144070564D01*
X84056475Y-144076161D01*
X84002895Y-144105229D01*
X83984798Y-144121810D01*
X83971971Y-144141925D01*
X83963306Y-144172332D01*
X83957696Y-144219788D01*
X83954035Y-144291050D01*
X83951215Y-144392875D01*
X83950484Y-144425115D01*
X83947820Y-144535410D01*
X83944792Y-144613036D01*
X83940250Y-144664396D01*
X83933046Y-144695890D01*
X83922033Y-144713920D01*
X83906060Y-144724888D01*
X83895834Y-144729733D01*
X83852406Y-144746301D01*
X83826842Y-144751769D01*
X83818395Y-144733507D01*
X83813239Y-144678296D01*
X83811346Y-144585499D01*
X83812689Y-144454478D01*
X83813107Y-144434269D01*
X83816058Y-144314733D01*
X83819548Y-144227449D01*
X83824514Y-144165591D01*
X83831893Y-144122336D01*
X83842624Y-144090860D01*
X83857645Y-144064339D01*
X83865502Y-144052975D01*
X83910553Y-144002692D01*
X83960940Y-143963581D01*
X83967108Y-143960167D01*
X84057458Y-143933212D01*
X84152362Y-143937670D01*
G36*
X85041081Y-144093289D02*
G01*
X85040833Y-144239320D01*
X85039872Y-144351655D01*
X85037794Y-144435678D01*
X85034193Y-144496769D01*
X85028665Y-144540309D01*
X85020804Y-144571679D01*
X85010207Y-144596262D01*
X85002182Y-144610294D01*
X84935728Y-144686388D01*
X84851470Y-144734084D01*
X84758249Y-144751199D01*
X84664900Y-144735546D01*
X84609312Y-144707418D01*
X84550957Y-144658760D01*
X84511186Y-144599333D01*
X84487190Y-144521507D01*
X84476161Y-144417652D01*
X84474599Y-144341462D01*
X84474809Y-144335986D01*
X84611308Y-144335986D01*
X84612141Y-144423355D01*
X84615961Y-144481192D01*
X84624746Y-144519029D01*
X84640474Y-144546398D01*
X84659266Y-144567042D01*
X84722375Y-144606890D01*
X84790137Y-144610295D01*
X84854179Y-144577025D01*
X84859164Y-144572517D01*
X84880439Y-144549067D01*
X84893779Y-144521166D01*
X84901001Y-144479641D01*
X84903923Y-144415316D01*
X84904385Y-144344200D01*
X84903383Y-144254858D01*
X84899238Y-144195258D01*
X84890236Y-144156089D01*
X84874667Y-144128040D01*
X84861902Y-144113144D01*
X84802600Y-144075575D01*
X84734301Y-144071057D01*
X84669110Y-144099753D01*
X84656528Y-144110406D01*
X84635111Y-144134063D01*
X84621744Y-144162251D01*
X84614566Y-144204245D01*
X84611719Y-144269319D01*
X84611308Y-144335986D01*
X84474809Y-144335986D01*
X84479322Y-144218765D01*
X84495362Y-144126577D01*
X84525528Y-144057269D01*
X84572629Y-144003211D01*
X84609312Y-143975505D01*
X84675990Y-143945572D01*
X84753272Y-143931678D01*
X84825110Y-143935397D01*
X84865308Y-143950400D01*
X84881082Y-143954670D01*
X84891550Y-143938750D01*
X84898856Y-143896089D01*
X84904385Y-143831106D01*
X84910437Y-143758732D01*
X84918844Y-143715187D01*
X84934141Y-143690287D01*
X84960864Y-143673845D01*
X84977654Y-143666564D01*
X85041154Y-143639963D01*
X85041081Y-144093289D01*
G37*
X85041081Y-144093289D02*
X85040833Y-144239320D01*
X85039872Y-144351655D01*
X85037794Y-144435678D01*
X85034193Y-144496769D01*
X85028665Y-144540309D01*
X85020804Y-144571679D01*
X85010207Y-144596262D01*
X85002182Y-144610294D01*
X84935728Y-144686388D01*
X84851470Y-144734084D01*
X84758249Y-144751199D01*
X84664900Y-144735546D01*
X84609312Y-144707418D01*
X84550957Y-144658760D01*
X84511186Y-144599333D01*
X84487190Y-144521507D01*
X84476161Y-144417652D01*
X84474599Y-144341462D01*
X84474809Y-144335986D01*
X84611308Y-144335986D01*
X84612141Y-144423355D01*
X84615961Y-144481192D01*
X84624746Y-144519029D01*
X84640474Y-144546398D01*
X84659266Y-144567042D01*
X84722375Y-144606890D01*
X84790137Y-144610295D01*
X84854179Y-144577025D01*
X84859164Y-144572517D01*
X84880439Y-144549067D01*
X84893779Y-144521166D01*
X84901001Y-144479641D01*
X84903923Y-144415316D01*
X84904385Y-144344200D01*
X84903383Y-144254858D01*
X84899238Y-144195258D01*
X84890236Y-144156089D01*
X84874667Y-144128040D01*
X84861902Y-144113144D01*
X84802600Y-144075575D01*
X84734301Y-144071057D01*
X84669110Y-144099753D01*
X84656528Y-144110406D01*
X84635111Y-144134063D01*
X84621744Y-144162251D01*
X84614566Y-144204245D01*
X84611719Y-144269319D01*
X84611308Y-144335986D01*
X84474809Y-144335986D01*
X84479322Y-144218765D01*
X84495362Y-144126577D01*
X84525528Y-144057269D01*
X84572629Y-144003211D01*
X84609312Y-143975505D01*
X84675990Y-143945572D01*
X84753272Y-143931678D01*
X84825110Y-143935397D01*
X84865308Y-143950400D01*
X84881082Y-143954670D01*
X84891550Y-143938750D01*
X84898856Y-143896089D01*
X84904385Y-143831106D01*
X84910437Y-143758732D01*
X84918844Y-143715187D01*
X84934141Y-143690287D01*
X84960864Y-143673845D01*
X84977654Y-143666564D01*
X85041154Y-143639963D01*
X85041081Y-144093289D01*
G36*
X85834929Y-143949662D02*
G01*
X85837911Y-144001068D01*
X85840247Y-144079192D01*
X85841749Y-144177857D01*
X85842231Y-144281343D01*
X85842231Y-144631533D01*
X85780401Y-144693363D01*
X85737793Y-144731462D01*
X85700390Y-144746895D01*
X85649270Y-144745918D01*
X85628978Y-144743433D01*
X85565554Y-144736200D01*
X85513095Y-144732055D01*
X85500308Y-144731672D01*
X85457199Y-144734176D01*
X85395544Y-144740462D01*
X85371638Y-144743433D01*
X85312922Y-144748028D01*
X85273464Y-144738046D01*
X85234338Y-144707228D01*
X85220215Y-144693363D01*
X85158385Y-144631533D01*
X85158385Y-143976503D01*
X85208150Y-143953829D01*
X85251002Y-143937034D01*
X85276073Y-143931154D01*
X85282501Y-143949736D01*
X85288509Y-144001655D01*
X85293697Y-144081172D01*
X85297664Y-144182546D01*
X85299577Y-144268192D01*
X85304923Y-144605231D01*
X85351560Y-144611825D01*
X85393976Y-144607214D01*
X85414760Y-144592287D01*
X85420570Y-144564377D01*
X85425530Y-144504925D01*
X85429246Y-144421466D01*
X85431324Y-144321532D01*
X85431624Y-144270104D01*
X85431923Y-143974054D01*
X85493454Y-143952604D01*
X85537004Y-143938020D01*
X85560694Y-143931219D01*
X85561377Y-143931154D01*
X85563754Y-143949642D01*
X85566366Y-144000906D01*
X85568995Y-144078649D01*
X85571421Y-144176574D01*
X85573115Y-144268192D01*
X85578461Y-144605231D01*
X85695692Y-144605231D01*
X85701072Y-144297746D01*
X85706451Y-143990261D01*
X85763601Y-143960707D01*
X85805797Y-143940413D01*
X85830770Y-143931204D01*
X85831491Y-143931154D01*
X85834929Y-143949662D01*
G37*
X85834929Y-143949662D02*
X85837911Y-144001068D01*
X85840247Y-144079192D01*
X85841749Y-144177857D01*
X85842231Y-144281343D01*
X85842231Y-144631533D01*
X85780401Y-144693363D01*
X85737793Y-144731462D01*
X85700390Y-144746895D01*
X85649270Y-144745918D01*
X85628978Y-144743433D01*
X85565554Y-144736200D01*
X85513095Y-144732055D01*
X85500308Y-144731672D01*
X85457199Y-144734176D01*
X85395544Y-144740462D01*
X85371638Y-144743433D01*
X85312922Y-144748028D01*
X85273464Y-144738046D01*
X85234338Y-144707228D01*
X85220215Y-144693363D01*
X85158385Y-144631533D01*
X85158385Y-143976503D01*
X85208150Y-143953829D01*
X85251002Y-143937034D01*
X85276073Y-143931154D01*
X85282501Y-143949736D01*
X85288509Y-144001655D01*
X85293697Y-144081172D01*
X85297664Y-144182546D01*
X85299577Y-144268192D01*
X85304923Y-144605231D01*
X85351560Y-144611825D01*
X85393976Y-144607214D01*
X85414760Y-144592287D01*
X85420570Y-144564377D01*
X85425530Y-144504925D01*
X85429246Y-144421466D01*
X85431324Y-144321532D01*
X85431624Y-144270104D01*
X85431923Y-143974054D01*
X85493454Y-143952604D01*
X85537004Y-143938020D01*
X85560694Y-143931219D01*
X85561377Y-143931154D01*
X85563754Y-143949642D01*
X85566366Y-144000906D01*
X85568995Y-144078649D01*
X85571421Y-144176574D01*
X85573115Y-144268192D01*
X85578461Y-144605231D01*
X85695692Y-144605231D01*
X85701072Y-144297746D01*
X85706451Y-143990261D01*
X85763601Y-143960707D01*
X85805797Y-143940413D01*
X85830770Y-143931204D01*
X85831491Y-143931154D01*
X85834929Y-143949662D01*
G36*
X86326333Y-143946528D02*
G01*
X86382590Y-143972117D01*
X86426747Y-144003124D01*
X86459101Y-144037795D01*
X86481438Y-144082520D01*
X86495546Y-144143692D01*
X86503211Y-144227701D01*
X86506220Y-144340940D01*
X86506538Y-144415509D01*
X86506538Y-144706420D01*
X86456773Y-144729095D01*
X86417576Y-144745667D01*
X86398157Y-144751769D01*
X86394442Y-144733610D01*
X86391495Y-144684648D01*
X86389691Y-144613153D01*
X86389308Y-144556385D01*
X86387661Y-144474371D01*
X86383222Y-144409309D01*
X86376740Y-144369467D01*
X86371590Y-144361000D01*
X86336977Y-144369646D01*
X86282640Y-144391823D01*
X86219722Y-144421886D01*
X86159368Y-144454192D01*
X86112721Y-144483098D01*
X86090926Y-144502961D01*
X86090839Y-144503175D01*
X86092714Y-144539935D01*
X86109525Y-144575026D01*
X86139039Y-144603528D01*
X86182116Y-144613061D01*
X86218932Y-144611950D01*
X86271074Y-144611133D01*
X86298444Y-144623349D01*
X86314882Y-144655624D01*
X86316955Y-144661710D01*
X86324081Y-144707739D01*
X86305024Y-144735687D01*
X86255353Y-144749007D01*
X86201697Y-144751470D01*
X86105142Y-144733210D01*
X86055159Y-144707131D01*
X85993429Y-144645868D01*
X85960690Y-144570670D01*
X85957753Y-144491211D01*
X85985424Y-144417167D01*
X86027047Y-144370769D01*
X86068604Y-144344793D01*
X86133922Y-144311907D01*
X86210038Y-144278557D01*
X86222726Y-144273461D01*
X86306333Y-144236565D01*
X86354530Y-144204046D01*
X86370030Y-144171718D01*
X86355550Y-144135394D01*
X86330692Y-144107000D01*
X86271939Y-144072039D01*
X86207293Y-144069417D01*
X86148008Y-144096358D01*
X86105339Y-144150088D01*
X86099739Y-144163950D01*
X86067133Y-144214936D01*
X86019530Y-144252787D01*
X85959461Y-144283850D01*
X85959461Y-144195768D01*
X85962997Y-144141951D01*
X85978156Y-144099534D01*
X86011768Y-144054279D01*
X86044035Y-144019420D01*
X86094209Y-143970062D01*
X86133193Y-143943547D01*
X86175064Y-143932911D01*
X86222460Y-143931154D01*
X86326333Y-143946528D01*
G37*
X86326333Y-143946528D02*
X86382590Y-143972117D01*
X86426747Y-144003124D01*
X86459101Y-144037795D01*
X86481438Y-144082520D01*
X86495546Y-144143692D01*
X86503211Y-144227701D01*
X86506220Y-144340940D01*
X86506538Y-144415509D01*
X86506538Y-144706420D01*
X86456773Y-144729095D01*
X86417576Y-144745667D01*
X86398157Y-144751769D01*
X86394442Y-144733610D01*
X86391495Y-144684648D01*
X86389691Y-144613153D01*
X86389308Y-144556385D01*
X86387661Y-144474371D01*
X86383222Y-144409309D01*
X86376740Y-144369467D01*
X86371590Y-144361000D01*
X86336977Y-144369646D01*
X86282640Y-144391823D01*
X86219722Y-144421886D01*
X86159368Y-144454192D01*
X86112721Y-144483098D01*
X86090926Y-144502961D01*
X86090839Y-144503175D01*
X86092714Y-144539935D01*
X86109525Y-144575026D01*
X86139039Y-144603528D01*
X86182116Y-144613061D01*
X86218932Y-144611950D01*
X86271074Y-144611133D01*
X86298444Y-144623349D01*
X86314882Y-144655624D01*
X86316955Y-144661710D01*
X86324081Y-144707739D01*
X86305024Y-144735687D01*
X86255353Y-144749007D01*
X86201697Y-144751470D01*
X86105142Y-144733210D01*
X86055159Y-144707131D01*
X85993429Y-144645868D01*
X85960690Y-144570670D01*
X85957753Y-144491211D01*
X85985424Y-144417167D01*
X86027047Y-144370769D01*
X86068604Y-144344793D01*
X86133922Y-144311907D01*
X86210038Y-144278557D01*
X86222726Y-144273461D01*
X86306333Y-144236565D01*
X86354530Y-144204046D01*
X86370030Y-144171718D01*
X86355550Y-144135394D01*
X86330692Y-144107000D01*
X86271939Y-144072039D01*
X86207293Y-144069417D01*
X86148008Y-144096358D01*
X86105339Y-144150088D01*
X86099739Y-144163950D01*
X86067133Y-144214936D01*
X86019530Y-144252787D01*
X85959461Y-144283850D01*
X85959461Y-144195768D01*
X85962997Y-144141951D01*
X85978156Y-144099534D01*
X86011768Y-144054279D01*
X86044035Y-144019420D01*
X86094209Y-143970062D01*
X86133193Y-143943547D01*
X86175064Y-143932911D01*
X86222460Y-143931154D01*
X86326333Y-143946528D01*
G36*
X87009807Y-143949782D02*
G01*
X87033161Y-143959988D01*
X87088902Y-144004134D01*
X87136569Y-144067967D01*
X87166048Y-144136087D01*
X87170846Y-144169670D01*
X87154760Y-144216556D01*
X87119475Y-144241365D01*
X87081644Y-144256387D01*
X87064321Y-144259155D01*
X87055886Y-144239066D01*
X87039230Y-144195351D01*
X87031923Y-144175598D01*
X86990948Y-144107271D01*
X86931622Y-144073191D01*
X86855552Y-144074239D01*
X86849918Y-144075581D01*
X86809305Y-144094836D01*
X86779448Y-144132375D01*
X86759055Y-144192809D01*
X86746836Y-144280751D01*
X86741500Y-144400813D01*
X86741000Y-144464698D01*
X86740752Y-144565403D01*
X86739126Y-144634054D01*
X86734801Y-144677673D01*
X86726454Y-144703282D01*
X86712765Y-144717903D01*
X86692411Y-144728558D01*
X86691234Y-144729095D01*
X86652038Y-144745667D01*
X86632619Y-144751769D01*
X86629635Y-144733319D01*
X86627081Y-144682323D01*
X86625140Y-144605308D01*
X86623997Y-144508805D01*
X86623769Y-144438184D01*
X86624932Y-144301525D01*
X86629479Y-144197851D01*
X86638999Y-144121108D01*
X86655081Y-144065246D01*
X86679313Y-144024212D01*
X86713286Y-143991954D01*
X86746833Y-143969440D01*
X86827499Y-143939476D01*
X86921381Y-143932718D01*
X87009807Y-143949782D01*
G37*
X87009807Y-143949782D02*
X87033161Y-143959988D01*
X87088902Y-144004134D01*
X87136569Y-144067967D01*
X87166048Y-144136087D01*
X87170846Y-144169670D01*
X87154760Y-144216556D01*
X87119475Y-144241365D01*
X87081644Y-144256387D01*
X87064321Y-144259155D01*
X87055886Y-144239066D01*
X87039230Y-144195351D01*
X87031923Y-144175598D01*
X86990948Y-144107271D01*
X86931622Y-144073191D01*
X86855552Y-144074239D01*
X86849918Y-144075581D01*
X86809305Y-144094836D01*
X86779448Y-144132375D01*
X86759055Y-144192809D01*
X86746836Y-144280751D01*
X86741500Y-144400813D01*
X86741000Y-144464698D01*
X86740752Y-144565403D01*
X86739126Y-144634054D01*
X86734801Y-144677673D01*
X86726454Y-144703282D01*
X86712765Y-144717903D01*
X86692411Y-144728558D01*
X86691234Y-144729095D01*
X86652038Y-144745667D01*
X86632619Y-144751769D01*
X86629635Y-144733319D01*
X86627081Y-144682323D01*
X86625140Y-144605308D01*
X86623997Y-144508805D01*
X86623769Y-144438184D01*
X86624932Y-144301525D01*
X86629479Y-144197851D01*
X86638999Y-144121108D01*
X86655081Y-144065246D01*
X86679313Y-144024212D01*
X86713286Y-143991954D01*
X86746833Y-143969440D01*
X86827499Y-143939476D01*
X86921381Y-143932718D01*
X87009807Y-143949782D01*
G36*
X87684224Y-143960838D02*
G01*
X87761528Y-144011361D01*
X87798814Y-144056590D01*
X87828353Y-144138663D01*
X87830699Y-144203607D01*
X87825385Y-144290445D01*
X87625115Y-144378103D01*
X87527739Y-144422887D01*
X87464113Y-144458913D01*
X87431029Y-144490117D01*
X87425280Y-144520436D01*
X87443658Y-144553805D01*
X87463923Y-144575923D01*
X87522889Y-144611393D01*
X87587024Y-144613879D01*
X87645926Y-144586235D01*
X87689197Y-144531320D01*
X87696936Y-144511928D01*
X87734006Y-144451364D01*
X87776654Y-144425552D01*
X87835154Y-144403471D01*
X87835154Y-144487184D01*
X87829982Y-144544150D01*
X87809723Y-144592189D01*
X87767262Y-144647346D01*
X87760951Y-144654514D01*
X87713720Y-144703585D01*
X87673121Y-144729920D01*
X87622328Y-144742035D01*
X87580220Y-144746003D01*
X87504902Y-144746991D01*
X87451286Y-144734466D01*
X87417838Y-144715869D01*
X87365268Y-144674975D01*
X87328879Y-144630748D01*
X87305850Y-144575126D01*
X87293359Y-144500047D01*
X87288587Y-144397449D01*
X87288206Y-144345376D01*
X87289501Y-144282948D01*
X87407471Y-144282948D01*
X87408839Y-144316438D01*
X87412249Y-144321923D01*
X87434753Y-144314472D01*
X87483182Y-144294753D01*
X87547908Y-144266718D01*
X87561443Y-144260692D01*
X87643244Y-144219096D01*
X87688312Y-144182538D01*
X87698217Y-144148296D01*
X87674526Y-144113648D01*
X87654960Y-144098339D01*
X87584360Y-144067721D01*
X87518280Y-144072780D01*
X87462959Y-144110151D01*
X87424636Y-144176473D01*
X87412349Y-144229116D01*
X87407471Y-144282948D01*
X87289501Y-144282948D01*
X87290730Y-144223720D01*
X87300032Y-144133710D01*
X87318460Y-144068167D01*
X87348360Y-144019912D01*
X87392080Y-143981767D01*
X87411141Y-143969440D01*
X87497726Y-143937336D01*
X87592522Y-143935316D01*
X87684224Y-143960838D01*
G37*
X87684224Y-143960838D02*
X87761528Y-144011361D01*
X87798814Y-144056590D01*
X87828353Y-144138663D01*
X87830699Y-144203607D01*
X87825385Y-144290445D01*
X87625115Y-144378103D01*
X87527739Y-144422887D01*
X87464113Y-144458913D01*
X87431029Y-144490117D01*
X87425280Y-144520436D01*
X87443658Y-144553805D01*
X87463923Y-144575923D01*
X87522889Y-144611393D01*
X87587024Y-144613879D01*
X87645926Y-144586235D01*
X87689197Y-144531320D01*
X87696936Y-144511928D01*
X87734006Y-144451364D01*
X87776654Y-144425552D01*
X87835154Y-144403471D01*
X87835154Y-144487184D01*
X87829982Y-144544150D01*
X87809723Y-144592189D01*
X87767262Y-144647346D01*
X87760951Y-144654514D01*
X87713720Y-144703585D01*
X87673121Y-144729920D01*
X87622328Y-144742035D01*
X87580220Y-144746003D01*
X87504902Y-144746991D01*
X87451286Y-144734466D01*
X87417838Y-144715869D01*
X87365268Y-144674975D01*
X87328879Y-144630748D01*
X87305850Y-144575126D01*
X87293359Y-144500047D01*
X87288587Y-144397449D01*
X87288206Y-144345376D01*
X87289501Y-144282948D01*
X87407471Y-144282948D01*
X87408839Y-144316438D01*
X87412249Y-144321923D01*
X87434753Y-144314472D01*
X87483182Y-144294753D01*
X87547908Y-144266718D01*
X87561443Y-144260692D01*
X87643244Y-144219096D01*
X87688312Y-144182538D01*
X87698217Y-144148296D01*
X87674526Y-144113648D01*
X87654960Y-144098339D01*
X87584360Y-144067721D01*
X87518280Y-144072780D01*
X87462959Y-144110151D01*
X87424636Y-144176473D01*
X87412349Y-144229116D01*
X87407471Y-144282948D01*
X87289501Y-144282948D01*
X87290730Y-144223720D01*
X87300032Y-144133710D01*
X87318460Y-144068167D01*
X87348360Y-144019912D01*
X87392080Y-143981767D01*
X87411141Y-143969440D01*
X87497726Y-143937336D01*
X87592522Y-143935316D01*
X87684224Y-143960838D01*
G36*
X83578878Y-137600776D02*
G01*
X83684612Y-137601355D01*
X83761132Y-137602922D01*
X83813372Y-137605972D01*
X83846263Y-137610996D01*
X83864737Y-137618489D01*
X83873727Y-137628944D01*
X83878163Y-137642853D01*
X83878594Y-137644654D01*
X83885333Y-137677145D01*
X83897808Y-137741252D01*
X83914719Y-137830151D01*
X83934771Y-137937019D01*
X83956664Y-138055033D01*
X83957429Y-138059178D01*
X83979359Y-138174831D01*
X83999877Y-138277014D01*
X84017659Y-138359598D01*
X84031381Y-138416456D01*
X84039718Y-138441458D01*
X84040116Y-138441901D01*
X84064677Y-138454110D01*
X84115315Y-138474456D01*
X84181095Y-138498545D01*
X84181461Y-138498674D01*
X84264317Y-138529818D01*
X84362000Y-138569491D01*
X84454077Y-138609381D01*
X84458434Y-138611353D01*
X84608407Y-138679420D01*
X84940498Y-138452639D01*
X85042374Y-138383504D01*
X85134657Y-138321697D01*
X85212003Y-138270733D01*
X85269064Y-138234127D01*
X85300495Y-138215394D01*
X85303479Y-138214004D01*
X85326321Y-138220190D01*
X85368982Y-138250035D01*
X85433128Y-138304947D01*
X85520421Y-138386334D01*
X85609535Y-138472922D01*
X85695441Y-138558247D01*
X85772327Y-138636108D01*
X85835564Y-138701697D01*
X85880523Y-138750205D01*
X85902576Y-138776825D01*
X85903396Y-138778195D01*
X85905834Y-138796463D01*
X85896650Y-138826295D01*
X85873574Y-138871721D01*
X85834337Y-138936770D01*
X85776670Y-139025470D01*
X85699795Y-139139657D01*
X85631570Y-139240162D01*
X85570582Y-139330303D01*
X85520356Y-139404849D01*
X85484416Y-139458565D01*
X85466287Y-139486218D01*
X85465146Y-139488095D01*
X85467359Y-139514590D01*
X85484138Y-139566086D01*
X85512142Y-139632851D01*
X85522122Y-139654172D01*
X85565672Y-139749159D01*
X85612134Y-139856937D01*
X85649877Y-139950192D01*
X85677073Y-140019406D01*
X85698675Y-140072006D01*
X85711158Y-140099497D01*
X85712709Y-140101616D01*
X85735668Y-140105124D01*
X85789786Y-140114738D01*
X85867868Y-140129089D01*
X85962719Y-140146807D01*
X86067143Y-140166525D01*
X86173944Y-140186874D01*
X86275926Y-140206486D01*
X86365894Y-140223991D01*
X86436653Y-140238022D01*
X86481006Y-140247209D01*
X86491885Y-140249807D01*
X86503122Y-140256218D01*
X86511605Y-140270697D01*
X86517714Y-140298133D01*
X86521832Y-140343411D01*
X86524341Y-140411420D01*
X86525621Y-140507047D01*
X86526054Y-140635180D01*
X86526077Y-140687701D01*
X86526077Y-141114845D01*
X86423500Y-141135091D01*
X86366431Y-141146070D01*
X86281269Y-141162095D01*
X86178372Y-141181233D01*
X86068096Y-141201551D01*
X86037615Y-141207132D01*
X85935855Y-141226917D01*
X85847205Y-141246373D01*
X85779108Y-141263697D01*
X85739004Y-141277088D01*
X85732323Y-141281079D01*
X85715919Y-141309342D01*
X85692399Y-141364109D01*
X85666316Y-141434588D01*
X85661142Y-141449769D01*
X85626956Y-141543896D01*
X85584523Y-141650101D01*
X85542997Y-141745473D01*
X85542792Y-141745916D01*
X85473640Y-141895525D01*
X85928512Y-142564617D01*
X85636500Y-142857116D01*
X85548180Y-142944170D01*
X85467625Y-143020909D01*
X85399360Y-143083237D01*
X85347908Y-143127056D01*
X85317794Y-143148270D01*
X85313474Y-143149616D01*
X85288111Y-143139016D01*
X85236358Y-143109547D01*
X85163868Y-143064705D01*
X85076294Y-143007984D01*
X84981612Y-142944462D01*
X84885516Y-142879668D01*
X84799837Y-142823287D01*
X84730016Y-142778788D01*
X84681494Y-142749639D01*
X84659782Y-142739308D01*
X84633293Y-142748050D01*
X84583062Y-142771087D01*
X84519451Y-142803631D01*
X84512708Y-142807249D01*
X84427046Y-142850210D01*
X84368306Y-142871279D01*
X84331772Y-142871503D01*
X84312731Y-142851928D01*
X84312620Y-142851654D01*
X84303102Y-142828472D01*
X84280403Y-142773441D01*
X84246282Y-142690822D01*
X84202500Y-142584872D01*
X84150816Y-142459852D01*
X84092992Y-142320020D01*
X84036991Y-142184637D01*
X83975447Y-142035234D01*
X83918939Y-141896832D01*
X83869161Y-141773673D01*
X83827806Y-141670002D01*
X83796568Y-141590059D01*
X83777141Y-141538088D01*
X83771154Y-141518692D01*
X83786168Y-141496443D01*
X83825439Y-141460982D01*
X83877807Y-141421887D01*
X84026941Y-141298245D01*
X84143511Y-141156522D01*
X84226118Y-140999704D01*
X84273366Y-140830775D01*
X84283857Y-140652722D01*
X84276231Y-140570539D01*
X84234682Y-140400031D01*
X84163123Y-140249459D01*
X84065995Y-140120309D01*
X83947734Y-140014064D01*
X83812780Y-139932210D01*
X83665571Y-139876232D01*
X83510544Y-139847615D01*
X83352139Y-139847844D01*
X83194794Y-139878405D01*
X83042946Y-139940782D01*
X82901035Y-140036460D01*
X82841803Y-140090572D01*
X82728203Y-140229520D01*
X82649106Y-140381361D01*
X82603986Y-140541667D01*
X82592316Y-140706012D01*
X82613569Y-140869971D01*
X82667220Y-141029118D01*
X82752740Y-141179025D01*
X82869605Y-141315267D01*
X83000193Y-141421887D01*
X83054588Y-141462642D01*
X83093014Y-141497718D01*
X83106846Y-141518726D01*
X83099603Y-141541635D01*
X83079005Y-141596365D01*
X83046746Y-141678672D01*
X83004521Y-141784315D01*
X82954023Y-141909050D01*
X82896948Y-142048636D01*
X82840854Y-142184670D01*
X82778967Y-142334201D01*
X82721644Y-142472767D01*
X82670644Y-142596107D01*
X82627727Y-142699964D01*
X82594653Y-142780080D01*
X82573181Y-142832195D01*
X82565225Y-142851654D01*
X82546429Y-142871423D01*
X82510074Y-142871365D01*
X82451479Y-142850441D01*
X82365968Y-142807613D01*
X82365292Y-142807249D01*
X82300907Y-142774012D01*
X82248861Y-142749802D01*
X82219512Y-142739404D01*
X82218217Y-142739308D01*
X82196124Y-142749855D01*
X82147348Y-142779184D01*
X82077331Y-142823827D01*
X81991514Y-142880314D01*
X81896388Y-142944462D01*
X81799540Y-143009411D01*
X81712253Y-143065896D01*
X81640181Y-143110421D01*
X81588977Y-143139490D01*
X81564526Y-143149616D01*
X81542010Y-143136307D01*
X81496742Y-143099112D01*
X81433244Y-143042128D01*
X81356039Y-142969449D01*
X81269651Y-142885171D01*
X81241399Y-142857016D01*
X80949287Y-142564416D01*
X81171631Y-142238104D01*
X81239202Y-142137897D01*
X81298507Y-142047963D01*
X81346217Y-141973510D01*
X81379007Y-141919751D01*
X81393548Y-141891894D01*
X81393974Y-141889912D01*
X81386308Y-141863655D01*
X81365689Y-141810837D01*
X81335685Y-141740310D01*
X81314625Y-141693093D01*
X81275248Y-141602694D01*
X81238165Y-141511366D01*
X81209415Y-141434200D01*
X81201605Y-141410692D01*
X81179417Y-141347916D01*
X81157727Y-141299411D01*
X81145813Y-141281079D01*
X81119523Y-141269859D01*
X81062142Y-141253954D01*
X80981118Y-141235167D01*
X80883895Y-141215299D01*
X80840385Y-141207132D01*
X80729896Y-141186829D01*
X80623916Y-141167170D01*
X80532801Y-141150088D01*
X80466908Y-141137518D01*
X80454500Y-141135091D01*
X80351923Y-141114845D01*
X80351923Y-140687701D01*
X80352153Y-140547246D01*
X80353099Y-140440979D01*
X80355141Y-140364013D01*
X80358662Y-140311460D01*
X80364043Y-140278433D01*
X80371666Y-140260045D01*
X80381912Y-140251408D01*
X80386115Y-140249807D01*
X80411470Y-140244127D01*
X80467484Y-140232795D01*
X80546964Y-140217179D01*
X80642712Y-140198647D01*
X80747533Y-140178569D01*
X80854232Y-140158312D01*
X80955613Y-140139246D01*
X81044479Y-140122739D01*
X81113637Y-140110159D01*
X81155889Y-140102875D01*
X81165290Y-140101616D01*
X81173807Y-140084763D01*
X81192660Y-140039870D01*
X81218324Y-139975430D01*
X81228123Y-139950192D01*
X81267648Y-139852686D01*
X81314192Y-139744959D01*
X81355877Y-139654172D01*
X81386550Y-139584753D01*
X81406956Y-139527710D01*
X81413768Y-139492777D01*
X81412682Y-139488095D01*
X81398285Y-139465991D01*
X81365412Y-139416831D01*
X81317590Y-139345848D01*
X81258348Y-139258278D01*
X81191215Y-139159357D01*
X81177941Y-139139830D01*
X81100046Y-139024140D01*
X81042787Y-138936044D01*
X81003881Y-138871486D01*
X80981044Y-138826411D01*
X80971994Y-138796763D01*
X80974448Y-138778485D01*
X80974511Y-138778369D01*
X80993827Y-138754361D01*
X81036551Y-138707947D01*
X81098051Y-138643937D01*
X81173698Y-138567145D01*
X81258861Y-138482382D01*
X81268465Y-138472922D01*
X81375790Y-138368989D01*
X81458615Y-138292675D01*
X81518605Y-138242571D01*
X81557423Y-138217270D01*
X81574520Y-138214004D01*
X81599473Y-138228250D01*
X81651255Y-138261156D01*
X81724520Y-138309208D01*
X81813920Y-138368890D01*
X81914111Y-138436688D01*
X81937501Y-138452639D01*
X82269593Y-138679420D01*
X82419565Y-138611353D01*
X82510770Y-138571685D01*
X82608669Y-138531791D01*
X82692831Y-138499983D01*
X82696538Y-138498674D01*
X82762369Y-138474576D01*
X82813116Y-138454200D01*
X82837842Y-138441936D01*
X82837884Y-138441901D01*
X82845729Y-138419734D01*
X82859066Y-138365217D01*
X82876570Y-138284480D01*
X82896917Y-138183650D01*
X82918782Y-138068856D01*
X82920571Y-138059178D01*
X82942504Y-137940904D01*
X82962640Y-137833542D01*
X82979680Y-137743917D01*
X82992328Y-137678851D01*
X82999284Y-137645168D01*
X82999406Y-137644654D01*
X83003639Y-137630325D01*
X83011871Y-137619507D01*
X83029033Y-137611706D01*
X83060058Y-137606429D01*
X83109878Y-137603182D01*
X83183424Y-137601472D01*
X83285629Y-137600807D01*
X83421425Y-137600693D01*
X83439000Y-137600692D01*
X83578878Y-137600776D01*
G37*
X83578878Y-137600776D02*
X83684612Y-137601355D01*
X83761132Y-137602922D01*
X83813372Y-137605972D01*
X83846263Y-137610996D01*
X83864737Y-137618489D01*
X83873727Y-137628944D01*
X83878163Y-137642853D01*
X83878594Y-137644654D01*
X83885333Y-137677145D01*
X83897808Y-137741252D01*
X83914719Y-137830151D01*
X83934771Y-137937019D01*
X83956664Y-138055033D01*
X83957429Y-138059178D01*
X83979359Y-138174831D01*
X83999877Y-138277014D01*
X84017659Y-138359598D01*
X84031381Y-138416456D01*
X84039718Y-138441458D01*
X84040116Y-138441901D01*
X84064677Y-138454110D01*
X84115315Y-138474456D01*
X84181095Y-138498545D01*
X84181461Y-138498674D01*
X84264317Y-138529818D01*
X84362000Y-138569491D01*
X84454077Y-138609381D01*
X84458434Y-138611353D01*
X84608407Y-138679420D01*
X84940498Y-138452639D01*
X85042374Y-138383504D01*
X85134657Y-138321697D01*
X85212003Y-138270733D01*
X85269064Y-138234127D01*
X85300495Y-138215394D01*
X85303479Y-138214004D01*
X85326321Y-138220190D01*
X85368982Y-138250035D01*
X85433128Y-138304947D01*
X85520421Y-138386334D01*
X85609535Y-138472922D01*
X85695441Y-138558247D01*
X85772327Y-138636108D01*
X85835564Y-138701697D01*
X85880523Y-138750205D01*
X85902576Y-138776825D01*
X85903396Y-138778195D01*
X85905834Y-138796463D01*
X85896650Y-138826295D01*
X85873574Y-138871721D01*
X85834337Y-138936770D01*
X85776670Y-139025470D01*
X85699795Y-139139657D01*
X85631570Y-139240162D01*
X85570582Y-139330303D01*
X85520356Y-139404849D01*
X85484416Y-139458565D01*
X85466287Y-139486218D01*
X85465146Y-139488095D01*
X85467359Y-139514590D01*
X85484138Y-139566086D01*
X85512142Y-139632851D01*
X85522122Y-139654172D01*
X85565672Y-139749159D01*
X85612134Y-139856937D01*
X85649877Y-139950192D01*
X85677073Y-140019406D01*
X85698675Y-140072006D01*
X85711158Y-140099497D01*
X85712709Y-140101616D01*
X85735668Y-140105124D01*
X85789786Y-140114738D01*
X85867868Y-140129089D01*
X85962719Y-140146807D01*
X86067143Y-140166525D01*
X86173944Y-140186874D01*
X86275926Y-140206486D01*
X86365894Y-140223991D01*
X86436653Y-140238022D01*
X86481006Y-140247209D01*
X86491885Y-140249807D01*
X86503122Y-140256218D01*
X86511605Y-140270697D01*
X86517714Y-140298133D01*
X86521832Y-140343411D01*
X86524341Y-140411420D01*
X86525621Y-140507047D01*
X86526054Y-140635180D01*
X86526077Y-140687701D01*
X86526077Y-141114845D01*
X86423500Y-141135091D01*
X86366431Y-141146070D01*
X86281269Y-141162095D01*
X86178372Y-141181233D01*
X86068096Y-141201551D01*
X86037615Y-141207132D01*
X85935855Y-141226917D01*
X85847205Y-141246373D01*
X85779108Y-141263697D01*
X85739004Y-141277088D01*
X85732323Y-141281079D01*
X85715919Y-141309342D01*
X85692399Y-141364109D01*
X85666316Y-141434588D01*
X85661142Y-141449769D01*
X85626956Y-141543896D01*
X85584523Y-141650101D01*
X85542997Y-141745473D01*
X85542792Y-141745916D01*
X85473640Y-141895525D01*
X85928512Y-142564617D01*
X85636500Y-142857116D01*
X85548180Y-142944170D01*
X85467625Y-143020909D01*
X85399360Y-143083237D01*
X85347908Y-143127056D01*
X85317794Y-143148270D01*
X85313474Y-143149616D01*
X85288111Y-143139016D01*
X85236358Y-143109547D01*
X85163868Y-143064705D01*
X85076294Y-143007984D01*
X84981612Y-142944462D01*
X84885516Y-142879668D01*
X84799837Y-142823287D01*
X84730016Y-142778788D01*
X84681494Y-142749639D01*
X84659782Y-142739308D01*
X84633293Y-142748050D01*
X84583062Y-142771087D01*
X84519451Y-142803631D01*
X84512708Y-142807249D01*
X84427046Y-142850210D01*
X84368306Y-142871279D01*
X84331772Y-142871503D01*
X84312731Y-142851928D01*
X84312620Y-142851654D01*
X84303102Y-142828472D01*
X84280403Y-142773441D01*
X84246282Y-142690822D01*
X84202500Y-142584872D01*
X84150816Y-142459852D01*
X84092992Y-142320020D01*
X84036991Y-142184637D01*
X83975447Y-142035234D01*
X83918939Y-141896832D01*
X83869161Y-141773673D01*
X83827806Y-141670002D01*
X83796568Y-141590059D01*
X83777141Y-141538088D01*
X83771154Y-141518692D01*
X83786168Y-141496443D01*
X83825439Y-141460982D01*
X83877807Y-141421887D01*
X84026941Y-141298245D01*
X84143511Y-141156522D01*
X84226118Y-140999704D01*
X84273366Y-140830775D01*
X84283857Y-140652722D01*
X84276231Y-140570539D01*
X84234682Y-140400031D01*
X84163123Y-140249459D01*
X84065995Y-140120309D01*
X83947734Y-140014064D01*
X83812780Y-139932210D01*
X83665571Y-139876232D01*
X83510544Y-139847615D01*
X83352139Y-139847844D01*
X83194794Y-139878405D01*
X83042946Y-139940782D01*
X82901035Y-140036460D01*
X82841803Y-140090572D01*
X82728203Y-140229520D01*
X82649106Y-140381361D01*
X82603986Y-140541667D01*
X82592316Y-140706012D01*
X82613569Y-140869971D01*
X82667220Y-141029118D01*
X82752740Y-141179025D01*
X82869605Y-141315267D01*
X83000193Y-141421887D01*
X83054588Y-141462642D01*
X83093014Y-141497718D01*
X83106846Y-141518726D01*
X83099603Y-141541635D01*
X83079005Y-141596365D01*
X83046746Y-141678672D01*
X83004521Y-141784315D01*
X82954023Y-141909050D01*
X82896948Y-142048636D01*
X82840854Y-142184670D01*
X82778967Y-142334201D01*
X82721644Y-142472767D01*
X82670644Y-142596107D01*
X82627727Y-142699964D01*
X82594653Y-142780080D01*
X82573181Y-142832195D01*
X82565225Y-142851654D01*
X82546429Y-142871423D01*
X82510074Y-142871365D01*
X82451479Y-142850441D01*
X82365968Y-142807613D01*
X82365292Y-142807249D01*
X82300907Y-142774012D01*
X82248861Y-142749802D01*
X82219512Y-142739404D01*
X82218217Y-142739308D01*
X82196124Y-142749855D01*
X82147348Y-142779184D01*
X82077331Y-142823827D01*
X81991514Y-142880314D01*
X81896388Y-142944462D01*
X81799540Y-143009411D01*
X81712253Y-143065896D01*
X81640181Y-143110421D01*
X81588977Y-143139490D01*
X81564526Y-143149616D01*
X81542010Y-143136307D01*
X81496742Y-143099112D01*
X81433244Y-143042128D01*
X81356039Y-142969449D01*
X81269651Y-142885171D01*
X81241399Y-142857016D01*
X80949287Y-142564416D01*
X81171631Y-142238104D01*
X81239202Y-142137897D01*
X81298507Y-142047963D01*
X81346217Y-141973510D01*
X81379007Y-141919751D01*
X81393548Y-141891894D01*
X81393974Y-141889912D01*
X81386308Y-141863655D01*
X81365689Y-141810837D01*
X81335685Y-141740310D01*
X81314625Y-141693093D01*
X81275248Y-141602694D01*
X81238165Y-141511366D01*
X81209415Y-141434200D01*
X81201605Y-141410692D01*
X81179417Y-141347916D01*
X81157727Y-141299411D01*
X81145813Y-141281079D01*
X81119523Y-141269859D01*
X81062142Y-141253954D01*
X80981118Y-141235167D01*
X80883895Y-141215299D01*
X80840385Y-141207132D01*
X80729896Y-141186829D01*
X80623916Y-141167170D01*
X80532801Y-141150088D01*
X80466908Y-141137518D01*
X80454500Y-141135091D01*
X80351923Y-141114845D01*
X80351923Y-140687701D01*
X80352153Y-140547246D01*
X80353099Y-140440979D01*
X80355141Y-140364013D01*
X80358662Y-140311460D01*
X80364043Y-140278433D01*
X80371666Y-140260045D01*
X80381912Y-140251408D01*
X80386115Y-140249807D01*
X80411470Y-140244127D01*
X80467484Y-140232795D01*
X80546964Y-140217179D01*
X80642712Y-140198647D01*
X80747533Y-140178569D01*
X80854232Y-140158312D01*
X80955613Y-140139246D01*
X81044479Y-140122739D01*
X81113637Y-140110159D01*
X81155889Y-140102875D01*
X81165290Y-140101616D01*
X81173807Y-140084763D01*
X81192660Y-140039870D01*
X81218324Y-139975430D01*
X81228123Y-139950192D01*
X81267648Y-139852686D01*
X81314192Y-139744959D01*
X81355877Y-139654172D01*
X81386550Y-139584753D01*
X81406956Y-139527710D01*
X81413768Y-139492777D01*
X81412682Y-139488095D01*
X81398285Y-139465991D01*
X81365412Y-139416831D01*
X81317590Y-139345848D01*
X81258348Y-139258278D01*
X81191215Y-139159357D01*
X81177941Y-139139830D01*
X81100046Y-139024140D01*
X81042787Y-138936044D01*
X81003881Y-138871486D01*
X80981044Y-138826411D01*
X80971994Y-138796763D01*
X80974448Y-138778485D01*
X80974511Y-138778369D01*
X80993827Y-138754361D01*
X81036551Y-138707947D01*
X81098051Y-138643937D01*
X81173698Y-138567145D01*
X81258861Y-138482382D01*
X81268465Y-138472922D01*
X81375790Y-138368989D01*
X81458615Y-138292675D01*
X81518605Y-138242571D01*
X81557423Y-138217270D01*
X81574520Y-138214004D01*
X81599473Y-138228250D01*
X81651255Y-138261156D01*
X81724520Y-138309208D01*
X81813920Y-138368890D01*
X81914111Y-138436688D01*
X81937501Y-138452639D01*
X82269593Y-138679420D01*
X82419565Y-138611353D01*
X82510770Y-138571685D01*
X82608669Y-138531791D01*
X82692831Y-138499983D01*
X82696538Y-138498674D01*
X82762369Y-138474576D01*
X82813116Y-138454200D01*
X82837842Y-138441936D01*
X82837884Y-138441901D01*
X82845729Y-138419734D01*
X82859066Y-138365217D01*
X82876570Y-138284480D01*
X82896917Y-138183650D01*
X82918782Y-138068856D01*
X82920571Y-138059178D01*
X82942504Y-137940904D01*
X82962640Y-137833542D01*
X82979680Y-137743917D01*
X82992328Y-137678851D01*
X82999284Y-137645168D01*
X82999406Y-137644654D01*
X83003639Y-137630325D01*
X83011871Y-137619507D01*
X83029033Y-137611706D01*
X83060058Y-137606429D01*
X83109878Y-137603182D01*
X83183424Y-137601472D01*
X83285629Y-137600807D01*
X83421425Y-137600693D01*
X83439000Y-137600692D01*
X83578878Y-137600776D01*
D11*
X142886000Y-149500000D02*
G75*
G03*
X142886000Y-149500000I-2286000J0D01*
G01*
X75738748Y-154265000D02*
X76261252Y-154265000D01*
X75738748Y-155735000D02*
X76261252Y-155735000D01*
X134738748Y-155735000D02*
X135261252Y-155735000D01*
X134738748Y-154265000D02*
X135261252Y-154265000D01*
X91190000Y-159641000D02*
X94808000Y-159641000D01*
X91190000Y-161351000D02*
X91190000Y-159641000D01*
X97652700Y-155141000D02*
X113347300Y-155141000D01*
X119810000Y-161351000D02*
X119810000Y-159641000D01*
X116192000Y-159641000D02*
X119810000Y-159641000D01*
X119810000Y-166861000D02*
X116192000Y-166861000D01*
X119810000Y-165151000D02*
X119810000Y-166861000D01*
X113347300Y-171361000D02*
X109360000Y-171361000D01*
X107160000Y-169161000D02*
X109360000Y-171361000D01*
X107160000Y-169161000D02*
X103840000Y-169161000D01*
X103840000Y-169161000D02*
X101640000Y-171361000D01*
X101640000Y-171361000D02*
X97652700Y-171361000D01*
X94808000Y-166861000D02*
X91190000Y-166861000D01*
X91190000Y-165151000D02*
X91190000Y-166861000D01*
X97654630Y-171362789D02*
G75*
G02*
X94808000Y-166861000I7845370J8111789D01*
G01*
X113345370Y-155139211D02*
G75*
G02*
X116192000Y-159641000I-7845370J-8111789D01*
G01*
X113345370Y-171362789D02*
G75*
G03*
X116192000Y-166861000I-7845370J8111789D01*
G01*
X97654630Y-155139211D02*
G75*
G03*
X94808000Y-159641000I7845370J-8111789D01*
G01*
M02*
