M48
; DRILL file {KiCad (5.1.10)-1} date 02/11/24 23:09:13
; FORMAT={-:-/ absolute / inch / decimal}
; #@! TF.CreationDate,2024-02-11T23:09:13+03:00
; #@! TF.GenerationSoftware,Kicad,Pcbnew,(5.1.10)-1
; #@! TF.FileFunction,Plated,1,2,PTH
FMAT,2
INCH
T1C0.0118
T2C0.0315
%
G90
G05
T1
X2.563Y-6.458
X2.6848Y-6.4546
X2.7699Y-6.506
X2.7808Y-6.5466
X2.7898Y-6.5887
X2.833Y-6.6438
X2.8479Y-6.6857
X2.8642Y-6.5388
X2.8667Y-6.7244
X2.8937Y-6.754
X2.9301Y-6.7722
X2.9669Y-6.7554
X3.0498Y-6.9984
X3.0753Y-6.3961
X3.1745Y-6.8918
X3.2161Y-6.8911
X3.2848Y-6.8712
X3.2972Y-6.2849
X3.4051Y-6.8351
X3.4216Y-6.5547
X3.4226Y-6.449
X3.4304Y-7.0001
X3.4315Y-6.4904
X3.4398Y-6.5895
X3.4526Y-6.5272
X3.4678Y-6.6427
X3.4951Y-6.6161
X3.5351Y-5.7333
X3.5513Y-6.7883
X3.5655Y-6.5206
X3.5994Y-6.7388
X3.6348Y-6.9809
X3.6496Y-5.8463
X3.6554Y-6.3549
X3.6844Y-6.3246
X3.7356Y-6.383
X3.8061Y-6.9705
X3.9713Y-6.9541
X4.1783Y-6.9425
X4.1887Y-5.8898
X4.2092Y-6.9701
X4.2259Y-6.7627
X4.281Y-6.998
X4.4191Y-6.8899
X4.4542Y-6.9144
X4.6187Y-6.535
X4.6401Y-6.5722
X4.6503Y-6.9164
X4.6866Y-6.9046
X4.7087Y-6.9342
X4.7485Y-6.5253
X4.7918Y-6.9417
X4.8116Y-6.4925
X4.8387Y-6.4325
X4.8837Y-6.4734
X4.9648Y-6.8635
X5.0034Y-6.0482
X5.0053Y-6.8787
X5.0374Y-6.1952
X5.1025Y-6.844
X5.144Y-6.8468
X5.1544Y-6.3408
X5.1841Y-6.7903
X5.2261Y-6.7871
X5.3086Y-6.1824
X5.3992Y-6.9066
X5.4005Y-6.9538
X5.5698Y-6.9134
X5.6404Y-6.4174
T2
X3.9913Y-5.709
X3.9913Y-5.809
X4.2913Y-5.709
X4.2913Y-5.809
T0
M30
